/* XPM */
static char *e859ba43fb3d4306a8b770113d05b768guMwHftM2YBAMHgl[] = {
/* columns rows colors chars-per-pixel */
"32 32 153 2 ",
"   c #000001",
".  c #03010C",
"X  c #050212",
"o  c #07031B",
"O  c #08031E",
"+  c #0A0424",
"@  c #0C052B",
"#  c #0E0533",
"$  c #0F063A",
"%  c #10063D",
"&  c #57752B",
"*  c #5A762B",
"=  c #5D7B2D",
"-  c #5A6F3D",
";  c #5B7633",
":  c #5E7C31",
">  c #5D753B",
",  c #5F793A",
"<  c #617D2E",
"1  c #607735",
"2  c #617D32",
"3  c #61763E",
"4  c #627C3B",
"5  c #130642",
"6  c #130749",
"7  c #14084E",
"8  c #160853",
"9  c #1D0A54",
"0  c #18095A",
"q  c #220B50",
"w  c #1B0A65",
"e  c #1C0B6B",
"r  c #1E0B74",
"t  c #2A0D63",
"y  c #2A0E71",
"u  c #210C7D",
"i  c #280E7D",
"p  c #545C5A",
"a  c #576945",
"s  c #5A6B45",
"d  c #59654E",
"f  c #5E6B4C",
"g  c #5E7242",
"h  c #5D754C",
"j  c #5B6554",
"k  c #5F6A52",
"l  c #5D635D",
"z  c #627443",
"x  c #657C41",
"c  c #62724A",
"v  c #626E54",
"b  c #616B59",
"n  c #49486F",
"m  c #555A62",
"M  c #5C5D63",
"N  c #52566D",
"B  c #57586A",
"V  c #5B596A",
"C  c #4B447C",
"Z  c #554A7D",
"A  c #5C5172",
"S  c #5F5A72",
"D  c #5D6062",
"F  c #616760",
"G  c #60626A",
"H  c #5F802E",
"J  c #5F8030",
"K  c #63822E",
"L  c #69892F",
"P  c #648331",
"I  c #698733",
"U  c #668832",
"Y  c #698932",
"T  c #65803A",
"R  c #6A863A",
"E  c #250D8B",
"W  c #270D95",
"Q  c #280E93",
"!  c #2C0F9C",
"~  c #2C1091",
"^  c #29109B",
"/  c #371193",
"(  c #3A298E",
")  c #3E2B93",
"_  c #2F0FA6",
"`  c #330EAA",
"'  c #2B10A1",
"]  c #2C10A8",
"[  c #3310A5",
"{  c #3010AE",
"}  c #350EB4",
"|  c #360FB8",
" . c #380DBB",
".. c #3312B1",
"X. c #3310B6",
"o. c #3611BC",
"O. c #3B13BC",
"+. c #3F19BC",
"@. c #42149A",
"#. c #4D368F",
"$. c #4E3E8B",
"%. c #422B9C",
"&. c #4F3B94",
"*. c #533D94",
"=. c #523B9C",
"-. c #4514AE",
";. c #4A15BE",
":. c #421CBA",
">. c #5E1EB9",
",. c #452EA2",
"<. c #4B2BAD",
"1. c #5030A3",
"2. c #4C27B2",
"3. c #5A2FB2",
"4. c #522BB8",
"5. c #572CBB",
"6. c #592FB9",
"7. c #683CB2",
"8. c #4F4088",
"9. c #5A4B85",
"0. c #59478D",
"q. c #3810C5",
"w. c #3F12CB",
"e. c #4716C6",
"r. c #4E1FC1",
"t. c #4213C9",
"y. c #4C16CB",
"u. c #4E1DCB",
"i. c #410ED4",
"p. c #410ED6",
"a. c #450CDF",
"s. c #4411D4",
"d. c #4A11D6",
"f. c #4E1BD0",
"g. c #4C14DB",
"h. c #5512D6",
"j. c #5213DB",
"k. c #5411DC",
"l. c #561CDA",
"z. c #5728C7",
"x. c #612BCF",
"c. c #460CE0",
"v. c #4C0EE3",
"b. c #4C0EE5",
"n. c #4B0CE8",
"m. c #5312E5",
"M. c #5312E8",
"N. c #560CF8",
"B. c #5D11F4",
"V. c #6B1DE1",
"C. c #6116EB",
"Z. c #6219E9",
"A. c #681DE8",
/* pixels */
"< P K K P K P K P 2 2 2 P P I z g K P I P P P U 2 : : = = K P Y ",
"P P P P P P I Y I I I P K P P F b K P U P K = = P P K = = 2 2 P ",
"P P P Y P P P P < P P P I Y L c d = P P K = = < = = 2 f D 1 = : ",
"P P P P I K P U P P P P P L L c s < P P P P Y Y P = f 9.M P P P ",
"P K < P R c P Y P = P P = = = , , P P P < P P P 2 = l d 4 P K < ",
"P P < P , S z Y K < P = = ; , 4 4 4 P z s : P P : d s = K K 2 < ",
"I P P P K ; k 4 K P Y , N %.<.z.x.5.&.0.D = P 2 g > K K K = < < ",
"K = P P P = : z x U h ,.s.a.p.a.v.B.N.m.*.1 = = ; = P K K P = * ",
"P U U K P K K 1 c , =.p.q.o...' ! ` k.C.g.V * = = = P K K < < = ",
"K Y P K P P = = , $.w.X.^ u r w r E ! V.m.u.m < < * = K < < = = ",
"P I Y P P P P K l O.] r e 5 @ + % 8 u y.Z.p.4.4 = = K K < < = : ",
"< P Y U P P K 2 C ! u y 9 + .   . @ 6 _ j.! +.l K = & = < = * * ",
"P P U : < = = 3 %.E @.>.q .       . o w ` u _ 9.P = * * < * * * ",
"P Y P < K K < j t.h.;.i +             # r e W <.4 = * = = < = * ",
"K T v c 4 T = p M.Z.~ +               . $ 8 u ) 1 < = = = < P P ",
"< 3 f v l j & M m.O.w .                 X 5 r ) ; = ; g f f > K ",
"P : 2 < ; * = G j...r O                   $ r ( ; = - ; k k ; * ",
"2 < K = * = = M d.{ w +                 o 8 u %.1 = = * = * = = ",
"< P P < = < K d l.t.u O               X + 0 E 1.: = = = = = = = ",
"K P P P < < = 4 6.a.Q 6 # o .       . o 5 E O.A * = = < < = = = ",
"< P K < < = = H Z b. .r 7 # 5 t t # # 6 r o.r.f = = = * = = = * ",
"K K = * K < = = j f.p.| u 8 5 / e.;.-.[ o.Z.7.; K K = * = = = * ",
"K < K = = 2 K = = m :.a.p.Q e e E y.A.Z.v.3.k , K K = * = = = = ",
"= = H * * < < = < < Z p.n.p.} }  . .p.a.:.a = z > = = = * * = H ",
"= = P = = : ; = < = - C u.v.p.a.n.c.g.4.B : = 4 l j < = = * * = ",
"P P K = P s - * * * = < f Z 8.2.#.n m , K P = = s j = = < = = = ",
"P P = : g 4 2 * = < = < * * * f 4 = * = P P = < = = < < < * < < ",
"P K : f , K = * = K < < & & = = < = = P = < = = = = * & = = J : ",
"P x c z < * = = * < K P = * = < < < < < < = = = = = = * = = = = ",
"K j f = = P 2 = = < = = = < = = < < = = = < = * * = * < K * * = ",
"2 > = K = < = = = = = < < P < = = = K < = < = = * * * = K < = < ",
"* K K = = < < = = < < < = < < & * < = * * = = = = = = = = * * * "
};
