/* XPM */
static char *_57de105d7e24438eeba2c5f476751f1TqE6fXKKO9AWqux6[] = {
/* columns rows colors chars-per-pixel */
"32 32 170 2 ",
"   c #010002",
".  c #03010A",
"X  c #050214",
"o  c #080312",
"O  c #07031B",
"+  c #09031C",
"@  c #0A0425",
"#  c #0B042A",
"$  c #0E0535",
"%  c #0F063A",
"&  c #120534",
"*  c #10063F",
"=  c #587427",
"-  c #5A762B",
";  c #5D7B2D",
":  c #576D3F",
">  c #5B7531",
",  c #5F7B32",
"<  c #5D753B",
"1  c #5E783A",
"2  c #617E2E",
"3  c #617D32",
"4  c #60753F",
"5  c #637B3B",
"6  c #130643",
"7  c #1D0742",
"8  c #14074B",
"9  c #1F0A4E",
"0  c #160754",
"q  c #180756",
"w  c #160856",
"e  c #17085A",
"r  c #19095D",
"t  c #25075E",
"y  c #1A0962",
"u  c #1F0769",
"i  c #1C0A6A",
"p  c #1E0B73",
"a  c #290B62",
"s  c #230B6B",
"d  c #300D62",
"f  c #320D6A",
"g  c #200B77",
"h  c #280C75",
"j  c #220C7B",
"k  c #2C0C7D",
"l  c #443E79",
"z  c #575E59",
"x  c #5B6D43",
"c  c #56664D",
"v  c #5D6C4A",
"b  c #5E7242",
"n  c #5F704B",
"m  c #5C6651",
"M  c #5C6953",
"N  c #5C6459",
"B  c #616C4E",
"V  c #627545",
"C  c #637A40",
"Z  c #64744C",
"A  c #667949",
"S  c #697B4A",
"D  c #626A55",
"F  c #626C5B",
"G  c #4C4E69",
"H  c #524F6D",
"J  c #565A63",
"K  c #595A66",
"L  c #53536C",
"P  c #5D5C6A",
"I  c #4D487A",
"U  c #534C73",
"Y  c #594F7E",
"T  c #5F5679",
"R  c #685C76",
"E  c #60577F",
"W  c #695D7F",
"Q  c #626265",
"!  c #62626E",
"~  c #6D6177",
"^  c #5E802F",
"/  c #5F8030",
"(  c #63822E",
")  c #68882F",
"_  c #648331",
"`  c #698633",
"'  c #668832",
"]  c #698931",
"[  c #6A8933",
"{  c #65843D",
"}  c #250C84",
"|  c #270D8C",
" . c #290C8E",
".. c #300B84",
"X. c #300C89",
"o. c #390E8D",
"O. c #281381",
"+. c #2D1C83",
"@. c #321C8A",
"#. c #270D91",
"$. c #2A0D93",
"%. c #2B0E9A",
"&. c #320B95",
"*. c #2D1196",
"=. c #371C93",
"-. c #381D96",
";. c #31169F",
":. c #3A119E",
">. c #3B2297",
",. c #2F0EA1",
"<. c #320DA5",
"1. c #340DAC",
"2. c #3516A8",
"3. c #3914AE",
"4. c #3C18AB",
"5. c #360CB3",
"6. c #3B0DB5",
"7. c #3C0BBD",
"8. c #3E14B3",
"9. c #3E1AB0",
"0. c #3D11BA",
"q. c #48138E",
"w. c #4D3E87",
"e. c #45398C",
"r. c #43279F",
"t. c #42299C",
"y. c #4B2F9C",
"u. c #4E3693",
"i. c #51339D",
"p. c #5A3F9E",
"a. c #410FA6",
"s. c #4512A1",
"d. c #4213AF",
"f. c #4913A9",
"g. c #431EA9",
"h. c #4712B0",
"j. c #4A12B6",
"k. c #451EB5",
"l. c #4613BE",
"z. c #4A15BF",
"x. c #471BBE",
"c. c #5617B2",
"v. c #4326A1",
"b. c #482AA1",
"n. c #4928A9",
"m. c #5B3BA7",
"M. c #5A39A8",
"N. c #4821B5",
"B. c #5127B3",
"V. c #5020BC",
"C. c #5824B8",
"Z. c #4A4080",
"A. c #584883",
"S. c #534389",
"D. c #564A88",
"F. c #5B4896",
"G. c #634E89",
"H. c #625083",
"J. c #684999",
"K. c #3D0BC1",
"L. c #470FC3",
"P. c #4915C3",
"I. c #4A1AC2",
"U. c #4B10C8",
"Y. c #5013C5",
"T. c #521AC4",
"R. c #5513CD",
"E. c #5D19C8",
"W. c #5512D2",
"Q. c #5710D8",
/* pixels */
"2 _ ( ( _ ( _ ( _ 3 3 3 _ _ ` 5 N 3 _ ` _ _ _ ` 3 , , ; ; 5 5 ] ",
"_ _ _ ` _ _ ` ] ` ` ` _ ( _ _ 5 V _ _ ' _ ( ; ; _ _ _ ; , R Z ( ",
"_ _ ! W _ _ _ _ 2 _ _ _ ` ] ) 5 x ; _ _ ( ; ; 2 ; ; ( 3 b F 3 , ",
"_ _ A ~ A ( _ ' _ _ ' _ _ ) ] 3 > 3 _ _ V F ] ] _ ; ; m v _ _ _ ",
"_ ( ( _ S V _ ] _ ; Z F ; ; ; ( ; _ _ _ P E _ _ 3 2 4 m 3 3 ( 2 ",
"_ _ 2 _ 1 D 3 ] ( 2 F p.< > < < 1 5 _ 3 P < _ _ , > x ; ( ( 3 2 ",
"` _ _ _ ( ; 5 C ( _ { F.I l t.v.r.r.I L M ; _ ( ; ; ( _ ( ; 2 2 ",
"2 ; _ _ _ ; , 3 _ _ { e.2.<.5.K.7.K.U.P.w.3 ; ; ; ; _ ( ( _ ; - ",
"_ ' ' ( _ ( ( 2 ( 1 S.;.,.%.$.%.%.,.6.W.T.U > ; ; ; _ ( ( 2 2 ; ",
"( ] _ ( _ _ ; ; < S.8.#.| g y r p p } <.R.P.Y 3 2 - ; ( 2 2 ; ; ",
"_ ` ] _ _ _ _ _ N x.| y s 6 $ % % % r j a.L.N.v ; ; ( ( 2 2 ; , ",
"2 _ ] ' _ _ V T Z.*.} o.c.q.9 X X @ 6 p :.Y.3.D.! , - ; 2 ; - - ",
"_ _ ` , 2 ; , Q n.1.z.j...t f o   X $ 8 X.W.7.y.Q 1 - - 2 - - - ",
"_ ] _ 2 ( ( 2 M I.Q.h.0 #   . .   X O @ s Y.<.>.b ; - ; ; 2 ; - ",
"( ` _ 3 3 _ ; z P.j.j X . .       .   . 8 P.&.=.v 2 ; ; ; ; _ _ ",
"2 B P Z x > = z 8.$.i @                 6 f.h @.x ; - b b D , ( ",
"_ 1 n 1 - - ; N z.<.r + . .             7 o.0 +.: ; - 1 5 D < - ",
"3 2 ( ; - ; ; N P.,.i @ X             X # q 0 @.x ; ; - ; - ; ; ",
"2 _ _ 2 ; 2 3 J 9.<.g $ X             O O $ w -.N ; ; ; ; ; ; ; ",
"( _ _ _ 2 2 P m.n.6. .6 @ + O X   X + + # 8 p b.M.N ; 2 2 ; ; ; ",
"2 _ ( 2 2 ; v v G 0.<.i 6 a d &   . @ $ 6 e O.J M b ; - ; ; ; - ",
"( ( ; - ( 2 ^ ; c k.5.$.r & o.s.6 @ @ * y %.v.b ( ( ; - ; ; ; - ",
"( 2 ( ; ; 3 _ ; , L 4.5.| e u 6.j.k y p $.g.K , ( 2 ; - ; ; ; ; ",
"; ; ^ - - 2 2 ; 2 3 H 8.5.%.j  .R.E.d.6.C.Q ; 2 ; ; ; ; - - ; ^ ",
"; ; _ ; ; ; ; ; 2 ; > S.I.1.1.<.7.7.l.V.H., ; ( , < 2 ; ; - - ; ",
"_ _ ( ; ( - - - - - ; 3 D U i.B.y.u.L M , _ ; ; > x 4 2 2 ; ; ; ",
"_ _ ; , , _ 2 - ; 2 ; 2 - - > N C > - ; ( _ ; 2 ; > b N 3 - 2 2 ",
"_ _ ; < b ( ; - ; ( 2 2 = = < G.V ; ; _ ; 2 ; ; ; ; > A.m ; / , ",
"_ ` Z 5 2 - ; ; - 2 ( _ ; - b J.D 2 2 2 2 ; ; ; ; ; ; < ; ; ; ; ",
"_ < m > ; _ 3 ; ; 2 ; ; ; 2 ; < 3 2 ; ; ; 2 ; - - ; - 2 ( - - ; ",
"3 x ; ( ; 2 ; ; ; ; ; 2 2 _ 2 ; ; ; ( 2 ; 2 ; ; - - - ; 2 2 ; 2 ",
"- 2 ( ; ; 2 2 ; ; 2 2 2 ; 2 2 = - 2 ; - - ; ; ; ; ; ; ; ; - - - "
};
