/* XPM */
static char *a4d909a2a775413bd9fb3a95b7153002gSP3zvduG3JJOnMa[] = {
/* columns rows colors chars-per-pixel */
"32 32 167 2 ",
"   c #010002",
".  c #04010C",
"X  c #08030E",
"o  c #050212",
"O  c #0C0416",
"+  c #070219",
"@  c #0A0425",
"#  c #0C052C",
"$  c #120526",
"%  c #14062B",
"&  c #180728",
"*  c #0E0534",
"=  c #0F063A",
"-  c #120632",
";  c #13063C",
":  c #5A762B",
">  c #5D7B2D",
",  c #556C3B",
"<  c #5B6F3B",
"1  c #5C7535",
"2  c #5E7B31",
"3  c #5D743C",
"4  c #5E7938",
"5  c #617E2E",
"6  c #617D32",
"7  c #62773A",
"8  c #637C3A",
"9  c #120745",
"0  c #190842",
"q  c #14074B",
"w  c #16084D",
"e  c #1B084B",
"r  c #1A075D",
"t  c #170958",
"y  c #19095D",
"u  c #250A46",
"i  c #290C44",
"p  c #21064F",
"a  c #2C0E50",
"s  c #1C0964",
"d  c #1E0A6C",
"f  c #1F0C73",
"g  c #260B65",
"h  c #320F65",
"j  c #220A73",
"k  c #2B0D75",
"l  c #230B7D",
"z  c #380E78",
"x  c #28107F",
"c  c #545F52",
"v  c #56585F",
"b  c #5A5E5C",
"n  c #5B6E44",
"m  c #56674E",
"M  c #5C6C4A",
"N  c #5F7242",
"B  c #5A7048",
"V  c #546052",
"C  c #5A6455",
"Z  c #5E6A54",
"A  c #56605A",
"S  c #5C635B",
"D  c #5E695B",
"F  c #606E46",
"G  c #626F4D",
"H  c #617443",
"J  c #687D47",
"K  c #61734B",
"L  c #66794A",
"P  c #616B55",
"I  c #626B5B",
"U  c #647154",
"Y  c #4E4F6A",
"T  c #514F6E",
"R  c #4E5166",
"E  c #515466",
"W  c #575B61",
"Q  c #5B5E63",
"!  c #51546A",
"~  c #5D5B6B",
"^  c #4C457C",
"/  c #564F71",
"(  c #57477F",
")  c #504B7E",
"_  c #5C5477",
"`  c #5F547F",
"'  c #61587A",
"]  c #5F6162",
"[  c #616565",
"{  c #626860",
"}  c #61626A",
"|  c #5E802F",
" . c #5F8030",
".. c #63822E",
"X. c #68872F",
"o. c #68882F",
"O. c #648331",
"+. c #698733",
"@. c #668932",
"#. c #6A8933",
"$. c #668139",
"%. c #6A8638",
"&. c #638140",
"*. c #250B83",
"=. c #2C0D84",
"-. c #260D8A",
";. c #2D0D8B",
":. c #360D83",
">. c #330E8B",
",. c #3A0E8F",
"<. c #290D92",
"1. c #2C0D94",
"2. c #2D0D9A",
"3. c #350D92",
"4. c #340E9C",
"5. c #361396",
"6. c #3C1096",
"7. c #371C93",
"8. c #34159C",
"9. c #351899",
"0. c #3D3081",
"q. c #382197",
"w. c #3B2596",
"e. c #3C2499",
"r. c #2F0BA0",
"t. c #330DA3",
"y. c #3D0FA2",
"u. c #3E0EAA",
"i. c #3B17A5",
"p. c #3B19A4",
"a. c #3C16AA",
"s. c #3E18AD",
"d. c #3F21A1",
"f. c #453786",
"g. c #453A81",
"h. c #49398B",
"j. c #502E9C",
"k. c #4E3194",
"l. c #4C3C90",
"z. c #533E91",
"x. c #54329E",
"c. c #5A3F9C",
"v. c #400EAD",
"b. c #4111A7",
"n. c #4010AA",
"m. c #441DAC",
"M. c #430FB3",
"N. c #410BBB",
"B. c #4212B2",
"V. c #461CB3",
"C. c #4410BD",
"Z. c #4B14BB",
"A. c #4E2EA6",
"S. c #4F30A2",
"D. c #4A21B3",
"F. c #4E28B1",
"G. c #4F4483",
"H. c #5E4E83",
"J. c #5C478F",
"K. c #5E4D89",
"L. c #5F5383",
"P. c #5A4295",
"I. c #5C40A0",
"U. c #4D13C2",
"Y. c #5114C7",
"T. c #571FC7",
"R. c #5C2FC2",
/* pixels */
"P [ 8 X.@...@.X.O.6 6 6 O.@.@.5 > 5 O.+.@.$.H $.6 2 2 > > O.P J ",
"7 } U @.@.O.+.#.+.+.+.@...@.@.O.....@.@.@.P I.4 O.O.O.2 > 7 P $.",
"..$.L L @.O.@.O.5 P ` 8 +.#.@.6 : > @.O...~ ] 5 > > ..5 N H > 2 ",
"O.@.O.$.+.@.O.@.O.P R.I X.o.#.> : 6 @.O.8 { %.#.O.> > > 1 8 O.O.",
"O...5 @.#...O.#.O.> } [ > > > ..> @.@.@.K K @.O.6 5 5 : 5 O.X.5 ",
"O.O.5 @.6 ....#...5 8 M 2 1 n M B K 8 6 n 4 O.O.2 : : > O...6 5 ",
"+.@.O.O...> 5 @...O.@.D ) g.w.q.q.e.h.! n 2 O...> > ..O.X.> 5 5 ",
"5 > O.@.@.> > ..O.@.&.l.B.2.1.<.2.t.t.s.h.N > > > > O...X.O.> : ",
"O.@.@...O.....5 ..3 G.a.4.-.-.j *.<.2.t.B.z., > > > O...X.5 5 > ",
"..#.@...$.O.> > 3 ^ i.4.=.l l d t d *.-.t.U.z.3 5 : > 6 5 5 > > ",
"@.+.#.O.L.' 8 O.C D.u.5.3.>.k e * # t s -.B.T.Q > 3 L.K.6 5 > 2 ",
"5 O.#.@.Z I ] D G.C.N.n.y.3.:.z % @ * t l y.Y.c.I Z v C 6 > : : ",
"@.@.O.2 ..> 2 G A.N.n.k w * + p u . . = y ;.Z.F.P > : : 5 : : : ",
"@.#.O.5 ....> Z m.4.-.y + o   O i   o # t 1.Z.V.S > : > > 5 > : ",
"8 $.$.5 ..@.> V m.t.l q o     X &   . * w 3.Y.B.A 5 > > > 5 ..O.",
"S P M 8 > : : c s.2.f #           o   . ; 6.B.a.A > : > > ..M D ",
"6 2 6 5 : : > C a.1.d @ o             o ; =.v.8.V > : > ..> 3 n ",
"6 5 ..> : > > C i.2.d # . O .       . $ e >.3.9.C > > : > : > > ",
"5 O.O.5 > 5 5 A d.t.f * + O         & a h >.j 7.W > > > > > > > ",
"..O.O.O.Z ] M } f.t.l q * @ +       . - 0 s d 0.C ~ _ Z 5 > > > ",
"5 @...5 J.c.M 2 R 8.2.k w ; - o . o + @ 9 r x Y > Z c.P.2 > > : ",
"..X.> : 7 7 | > m d.t.;.s g ,.q + @ * q s -.e.m ....4 < > > > : ",
"..5 ..> > ..O.> 2 E p.r.1.*.b.;.9 * 9 d *.9.T 1 5 5 > : > > > > ",
"> > | : : 5 5 > 5 6 / 9.t.3.4.v.l s j -.8.T 2 5 > > > > : : > | ",
"> > O.> > > > > 5 > 1 S.Z.B.u.M.M.t.B.m.^ 4 > ..5 > 5 > > : : > ",
"O.@...> ..: : : : : 4 H.~ ( x.k.j.x.H.S 4 O.> > : : H > 5 > > > ",
"O.O.> > > O.5 : > 5 > 2 : : 1 M H 1 : > ..O.> 5 > 2 M F 6 : 5 5 ",
"@.O.> > > ..> : > ..5 5 : : > S H > > O.> 5 > > > > : b n >  .2 ",
"@.O.O.O.5 : > > : 5 ..O.> : > H 7 5 5 5 5 > > > > > > : M C 2 > ",
"O.N M > > O.6 > > 5 > > > 5 1 P.P 5 > > > 5 > : : > : 5 6 Q C > ",
"H M 2 ..> 5 > > > > > 5 5 @.7 P.b > ..5 > 5 > > : : : > ..6 N 5 ",
": 6 ..> > 5 5 > > 5 5 5 > 5 5 : : 5 > : : > > > > > > > > : : : "
};
