/* XPM */
static char *_444859bc3db49bb94d0fe64dabf8739CcuBzCOTJ0g8h0bn[] = {
/* columns rows colors chars-per-pixel */
"32 32 173 2 ",
"   c #010002",
".  c #03010B",
"X  c #09030F",
"o  c #050212",
"O  c #0B0312",
"+  c #07031A",
"@  c #09031E",
"#  c #10051D",
"$  c #090323",
"%  c #0C042D",
"&  c #10052C",
"*  c #0E0534",
"=  c #160731",
"-  c #190733",
";  c #10063C",
":  c #210A3A",
">  c #586F2B",
",  c #5A762B",
"<  c #5D7B2D",
"1  c #546A3D",
"2  c #586F3D",
"3  c #5C7533",
"4  c #5E7C31",
"5  c #5E743D",
"6  c #617E2E",
"7  c #617E31",
"8  c #61763B",
"9  c #617B3C",
"0  c #130744",
"q  c #1C0944",
"w  c #15074B",
"e  c #19064E",
"r  c #15084D",
"t  c #180653",
"y  c #160854",
"u  c #190855",
"i  c #19095B",
"p  c #240B53",
"a  c #290C54",
"s  c #280A5C",
"d  c #1C0A66",
"f  c #1D0A6D",
"g  c #1F0B72",
"h  c #230A6A",
"j  c #2C0C6A",
"k  c #230A75",
"l  c #2C0D75",
"z  c #220B7C",
"x  c #2D0E7B",
"c  c #595E5C",
"v  c #576644",
"b  c #5C6F43",
"n  c #5B6B4C",
"m  c #5F7145",
"M  c #5F704D",
"N  c #5B6357",
"B  c #5D6A51",
"V  c #5D6659",
"C  c #5F6C5A",
"Z  c #617444",
"A  c #657D41",
"S  c #697D43",
"D  c #61714D",
"F  c #616C53",
"G  c #606A59",
"H  c #637353",
"J  c #647058",
"K  c #4F4E6D",
"L  c #525664",
"P  c #5D5D66",
"I  c #57566E",
"U  c #5D5C6A",
"Y  c #4A437D",
"T  c #574D7C",
"R  c #5A4F7A",
"E  c #5E5971",
"W  c #62547D",
"Q  c #68567A",
"!  c #64597B",
"~  c #5F6064",
"^  c #66646E",
"/  c #5F802D",
"(  c #5F8030",
")  c #63822E",
"_  c #68882F",
"`  c #648331",
"'  c #688632",
"]  c #678832",
"[  c #668338",
"{  c #69813D",
"}  c #678045",
"|  c #250C83",
" . c #280B83",
".. c #270C8B",
"X. c #270C8D",
"o. c #2B0C8C",
"O. c #320E85",
"+. c #310D8F",
"@. c #2D1488",
"#. c #331186",
"$. c #290C92",
"%. c #2D0C93",
"&. c #2E0E99",
"*. c #340D93",
"=. c #330D9B",
"-. c #2F139A",
";. c #331394",
":. c #321A95",
">. c #34149B",
",. c #371D9A",
"<. c #3B1F9E",
"1. c #372096",
"2. c #3C2499",
"3. c #350DA3",
"4. c #390DA5",
"5. c #380BAA",
"6. c #3515A3",
"7. c #3B12A6",
"8. c #3D18A6",
"9. c #3D17AD",
"0. c #3D19AA",
"q. c #3D0DB4",
"w. c #3F12B4",
"e. c #3F20A4",
"r. c #4A3D84",
"t. c #4F3E8F",
"y. c #452D9B",
"u. c #453295",
"i. c #4A319B",
"p. c #563E96",
"a. c #543A9C",
"s. c #4511AC",
"d. c #4219AC",
"f. c #4C1EAF",
"g. c #400EB1",
"h. c #410CBA",
"j. c #4217B4",
"k. c #4E15BF",
"l. c #4B1DB8",
"z. c #5015B4",
"x. c #4223A6",
"c. c #452AA5",
"v. c #4423AA",
"b. c #4829AC",
"n. c #4D31A6",
"m. c #5538A1",
"M. c #5839A5",
"N. c #5030AD",
"B. c #5428BA",
"V. c #5A33B5",
"C. c #4E4383",
"Z. c #544586",
"A. c #5B4C85",
"S. c #52428C",
"D. c #564A88",
"F. c #5B4B8A",
"G. c #554291",
"H. c #594294",
"J. c #5D419C",
"K. c #604E84",
"L. c #604D8B",
"P. c #665784",
"I. c #695787",
"U. c #6C538C",
"Y. c #4A14C3",
"T. c #5718C6",
"R. c #501CC5",
"E. c #5113CE",
"W. c #5118D0",
"Q. c #5524C4",
"!. c #5A26C0",
"~. c #5A29C4",
"^. c #622AC3",
/* pixels */
"6 ` ) ) ` ) ' ` P.U.7 7 ` ` ` 6 < ) ` ' ` ` D H 7 4 4 < < ) ` ] ",
"` ` ` ` ` ` ' ] S I.S ` ) ` ` ` ) ) ` ] ` 7 4 4 ` ` ` 4 < 7 7 ` ",
"` ` ` ] ` ` ` ` 6 F F ` ' ] ` 7 , < ` ` ) b 5 6 < < ) 6 < 6 < 4 ",
"` ` ` ` ' ` ` ] ` ` H [ ' _ ] < , 7 ` ` ` ` ] ] ` < < < < ` 7 ` ",
"` ) 6 ` ] ) ` ] ` < 9 A 6 < ) ) < ) ` ` 7 ` ` ` 7 6 6 , 6 ` ) 6 ",
"` ` 6 ` 7 ) ) ] ) 6 9 5 < 2 n B B F Z 7 , 4 ` ` 4 , , < ` ) 7 6 ",
"' ` ` ` ) < ) ` ) ` [ C D.i.e.<.<.x.i.T n 4 ` ) < < ) ` ) < 6 6 ",
") < ` ` ` < < ) ` ` J n.Y.q.$.X.X.$.&.9.i.n < < < < ` ) ) ` < , ",
") ` [ ) ` ) ) 6 ) b m.f.z.g.3.=.z g | $.>.r.1 < < < ` ) ) 6 6 < ",
") } ! 9 ` ` < < B a.Y.4.;.=.o.%.z f f z ..9.H.b 6 , < ) 9 E 5 < ",
"` { ^ J H ` ` ` L.W.h.=.%.*.O.x u 0 0 f z 3.R.T < < 9 Z F U 3 4 ",
"6 ` ] [ D [ D m m.w.&.| f t e h q @ + 0 f $.w.M.9 4 v 3 7 < , , ",
"` ` [ < ) 4 3 V x.&.| f w o o % j - . $ r z 7.^.G < , , 6 , , , ",
"` ] ` 6 ) ) < D.0.$.z 0 $   .   : # . . * z 4.T.A.< , < < 6 < , ",
") ` ` ) ) ` , C.6.X.d $   .     # . . . % f 4.E.H.7 < < < 6 ` ` ",
") 6 < ) < , , Y 6.| i $ . o         o $ ; k s.k.G.4 , < < ) / ` ",
"` 4 7 6 , , < Y -.z i @             o o 0 O.T.Y.S., , < ) < , , ",
"7 ) ) < , < 4 C.;.z y $ X O           + e *.q.j.S.< < , < , < < ",
"6 ` ` 6 < 6 6 Z.:.z y * : #         - p k *.3.j.S.< < < < < < < ",
") ` ` ` ) 6 4 I 2. .#.i a & .     . a j h +.5.x.L 4 4 6 6 < < < ",
"6 ) ` 3 Z 5 n n u.@.*.h s q . . .   = a l %.4.u.b 5 B N 5 , < , ",
") [ W A.M 9 4 3 Y 1.3.k l j $ . o $ % 0 f o.,.C.4 ) 3 c K.Q 3 , ",
") 8 U.F < 6 ` < T c.8.o. .x 0 $ ; ; 0 d z ;.c.L ) ) < , 5 Q 3 < ",
"< < 4 , , 6 6 U J.Z.B.d.%.%.k i y u  .%.>.y.L 4 < < < < , , < / ",
"< < ` < < < , R E 3 D.Q.f.7.&.|  . .=.8.v.L , ) 6 < 6 < < , , < ",
"` ` ) < ) , , , , , m V.~.!.l.0.6.d.v.b.N.n < < , < 6 6 6 < < < ",
"` ` < < < ` 6 , < 6 5 P c T a.p.S.t.K c V.E < 6 < < 6 6 6 , 6 6 ",
"` ` < < < ) < , < 7 ~ 8 , > 3 4 7 3 < 7 V 8 < < < < , , < < ( 4 ",
"` ` ` ` 6 , < < , Z F.9 < , < 6 6 6 6 6 6 < < < < < < , < < < < ",
") 6 < < < ` 7 < < 8 b < < 6 < 5 7 6 < < < 6 < , , < , 6 7 n 3 < ",
"6 < < ) < 6 < < < < < 6 6 ` 6 b 3 < ) 6 < 6 < < , , , < 6 7 < 6 ",
", ) ) < < 6 6 < < 6 6 6 < 6 6 , , 6 < , , < < < < < < < < , , , "
};
