/* XPM */
static char *b80de2b93b3d498098f808a279f8b307lGhr1ErTim1cmjTe[] = {
/* columns rows colors chars-per-pixel */
"32 32 162 2 ",
"   c #000000",
".  c #03010D",
"X  c #050212",
"o  c #060218",
"O  c #09031E",
"+  c #0A0425",
"@  c #0C042C",
"#  c #0E0636",
"$  c #0F0639",
"%  c #12063C",
"&  c #57752B",
"*  c #5A762B",
"=  c #5D7B2D",
"-  c #596D3B",
";  c #5C7534",
":  c #5E7B31",
">  c #5E733C",
",  c #5F7939",
"<  c #617D2E",
"1  c #617D32",
"2  c #60753C",
"3  c #627A3C",
"4  c #120744",
"5  c #150843",
"6  c #15064A",
"7  c #14084C",
"8  c #160954",
"9  c #170959",
"0  c #18095C",
"q  c #200B51",
"w  c #1B0A64",
"e  c #1D0B6C",
"r  c #1E0C73",
"t  c #1F0C78",
"y  c #250A62",
"u  c #38126E",
"i  c #220B75",
"p  c #200C79",
"a  c #2D0F7A",
"s  c #321072",
"d  c #575D5C",
"f  c #596746",
"g  c #5B6B44",
"h  c #5B674D",
"j  c #5D6D4A",
"k  c #5E7241",
"l  c #5E7148",
"z  c #5B6553",
"x  c #5F6A53",
"c  c #5E6659",
"v  c #616E4D",
"b  c #617346",
"n  c #647B43",
"m  c #62724C",
"M  c #616E52",
"N  c #60665E",
"B  c #606A5A",
"V  c #595A61",
"C  c #55546B",
"Z  c #59576C",
"A  c #5B596A",
"S  c #574E7E",
"D  c #5D4F7F",
"F  c #575072",
"G  c #5B5573",
"H  c #5D5A74",
"J  c #5C5179",
"K  c #5E6562",
"L  c #616465",
"P  c #5F802E",
"I  c #5F8030",
"U  c #63822E",
"Y  c #69892F",
"T  c #648331",
"R  c #698733",
"E  c #668932",
"W  c #698932",
"Q  c #6A8A34",
"!  c #64813A",
"~  c #240D84",
"^  c #280B87",
"/  c #270E8A",
"(  c #260F93",
")  c #290D94",
"_  c #2C0E9C",
"`  c #2A109D",
"'  c #2E0FA6",
"]  c #2D0FAA",
"[  c #310CA4",
"{  c #320EAA",
"}  c #2B10A2",
"|  c #3310AF",
" . c #330EB1",
".. c #370EBF",
"X. c #3012B2",
"o. c #3D18B2",
"O. c #3612B9",
"+. c #3C12BB",
"@. c #4F3897",
"#. c #513F92",
"$. c #53399E",
"%. c #401FA9",
"&. c #4716BC",
"*. c #452CA5",
"=. c #4A2AAB",
"-. c #5235A6",
";. c #5338A2",
":. c #5B3AA6",
">. c #5736AA",
",. c #5E38AC",
"<. c #4B29B1",
"1. c #542FB2",
"2. c #5B2DBA",
"3. c #5B34B3",
"4. c #643CAD",
"5. c #574D82",
"6. c #58478A",
"7. c #574B88",
"8. c #574095",
"9. c #5F4794",
"0. c #5A439A",
"q. c #3B0FC4",
"w. c #3D0ECB",
"e. c #3D0FCE",
"r. c #3F13C1",
"t. c #3D10CA",
"y. c #490FC3",
"u. c #4115C3",
"i. c #4715CC",
"p. c #4A15CD",
"a. c #491ACA",
"s. c #5C1BC5",
"d. c #521CCD",
"f. c #420ED5",
"g. c #450EDB",
"h. c #4611D6",
"j. c #4A14D3",
"k. c #4F18D7",
"l. c #4B11DC",
"z. c #4F18D8",
"x. c #561BDA",
"c. c #5D1ADC",
"v. c #611ADD",
"b. c #4B20C1",
"n. c #5223C6",
"m. c #5629C1",
"M. c #622DC9",
"N. c #6227D7",
"B. c #622AD0",
"V. c #6221DB",
"C. c #4B0EE5",
"Z. c #4C0CE9",
"A. c #510CEE",
"S. c #4E11E0",
"D. c #5412E2",
"F. c #5B15E1",
"G. c #5819E0",
"H. c #5B14EC",
"J. c #5B10F0",
"K. c #6116EF",
"L. c #691BEC",
"P. c #6717F1",
/* pixels */
"< T U U T U T U T 1 1 1 T T R < = U T R T T T E 1 : : = = U T W ",
"T T T T T T R W R R R T U T T 3 M T T E T U = = T T T : = 1 1 T ",
"T T T W T T T T < T T T R W Y b Z > U T U = = < = = U < = < = : ",
"T T T T R T T E T T T T T Y Y 3 z 1 T T T T W W T = = > > T 1 T ",
"T U < T W U T W T = T T = = = 1 j T T T 1 T T T 1 < 1 A x T U < ",
"T T < T 1 U U Y U < T = = = 3 3 x n T U = : T T : * f j 1 U 1 < ",
"R T T T U = 1 m 1 T Q ! K 6.M.B.N.m.>.H j : T U : > 3 U U = < < ",
"U = T T T = ; K m T Q 7.p.g.C.A.J.P.H.l.n.c = = > > T U U T = * ",
"T E E U T U U 1 m , H k.e.O.} | _ +.L.j.f.1.f ; ; = T U U < < = ",
"U W T U T T = = 1 C a.e.X.} r p p ( i.H.{ q.1.v < * = U < < = = ",
"T R W T T T T U m d...` e 9 4 # % 7 ~ l.y.) e.8.= = U U < < = : ",
"< T Q E T T U U Z +._ e 7 @ o . O X @ _ p./ ] *.n = & = < = * * ",
"T T E : < = = T #.] r 5 + .         X 8 { ^ ~ u.L = * * < * & * ",
"T W T < U U = m %.r a u O .           . 6 e e | 0.= * = = < = * ",
"U T T 1 1 T = z o.^ s.s                   @ 9 / $.1 = = = < U T ",
"< < > N h - - d u.F.&.%                   + 0 ) ;.; ; ; > b l T ",
"T : 1 ; ; ; : B d.c./ +                   o 0 [ :.; - k M j j ; ",
"1 < U = * = = x x.u.~ @                   @ t e.4.= = * = * = = ",
"< T T < = < U x G.r.( 4 X           . . X 4 ( l.,.= = = = = = = ",
"U T T T < < = 3 2.+.} 7 o .         o # $ r +.H.D = = < < = = = ",
"< T U < < = = P 9.D.O.r + + X O % q w i ~ u.K.V.x = = * = = = * ",
"U U = * U < : = c H.S._ w 9 % @ y &.j.v.L.H.C.-.1 U = * = = = * ",
"U < U = = 1 T = > 3.A.f.' p 0 0 6 r { u.l.g.j.D U < = * = = = = ",
"= = P * * < < = < b 3.C.g.q. .) ~ ~ { f.Z.z.J v k = = = * * = P ",
"= = T = = = = > 1 = g =.f.C.C.f.w.f.Z.g.h.S = 3 k = < = = * * = ",
"T T U = U * - ; * * = z @.b.l.C.f.t.i.<.5.> = = * = < < < = = = ",
"T T = = : 3 3 * = < = < ; f C C H F V > T U = < = = < < < * < < ",
"T T = : j 3 = * = U < < * * = = < = < U = < = = = = * & = = I : ",
"T E b v 2 * = = * < U T = * = < < < < < < = = = = = = * = = = = ",
"U , G z = T 1 = = < = = = < = = < < = = = < = * * = * < U * * = ",
"< : > 1 = < = = = = = < < T < = = = U < = < = = * * * = < < = < ",
"* U U = = < < = = < < < = < < * * < = * * = = = = = = = = * * * "
};
