/* XPM */
static char *f8ffc46e18ea4f8c9b291ff0cfbe18c2qdCdI2yt64q9Ys9e[] = {
/* columns rows colors chars-per-pixel */
"32 32 169 2 ",
"   c #010003",
".  c #04010B",
"X  c #08020F",
"o  c #050212",
"O  c #0C0317",
"+  c #07031C",
"@  c #08031E",
"#  c #0B0424",
"$  c #0C042C",
"%  c #120525",
"&  c #15052B",
"*  c #0E0536",
"=  c #0F0639",
"-  c #120536",
";  c #1A0733",
":  c #11063C",
">  c #1A063A",
",  c #57752B",
"<  c #5A762B",
"1  c #5D7B2D",
"2  c #5C7534",
"3  c #5E7C30",
"4  c #5D743B",
"5  c #5F793A",
"6  c #617D2E",
"7  c #617E31",
"8  c #61763A",
"9  c #617A3B",
"0  c #120742",
"q  c #1C0641",
"w  c #14074C",
"e  c #1A0649",
"r  c #15084D",
"t  c #1C0949",
"y  c #170752",
"u  c #1C0650",
"i  c #150850",
"p  c #170959",
"a  c #1A095C",
"s  c #20064A",
"d  c #250852",
"f  c #240958",
"g  c #1B0A64",
"h  c #1D0A6B",
"j  c #280A63",
"k  c #200968",
"l  c #2E0D6B",
"z  c #210A72",
"x  c #220C7D",
"c  c #290D7C",
"v  c #556647",
"b  c #596745",
"n  c #5B6C44",
"m  c #56624D",
"M  c #5A674C",
"N  c #56684C",
"B  c #5B6B4C",
"V  c #5E7144",
"C  c #5F7548",
"Z  c #5D6554",
"A  c #5D6952",
"S  c #5C645C",
"D  c #606C4E",
"F  c #627445",
"G  c #627845",
"H  c #63734F",
"J  c #637B48",
"K  c #626B56",
"L  c #4A4A6D",
"P  c #4C5267",
"I  c #55546A",
"U  c #564F75",
"Y  c #5C5972",
"T  c #58527A",
"R  c #5D6361",
"E  c #5E802E",
"W  c #5F8030",
"Q  c #63822E",
"!  c #68882F",
"~  c #648331",
"^  c #698733",
"/  c #668832",
"(  c #698932",
")  c #6A8A33",
"_  c #240D83",
"`  c #260D8A",
"'  c #2B0E8E",
"]  c #320E8A",
"[  c #381283",
"{  c #260E92",
"}  c #2B0E93",
"|  c #2B0F9B",
" . c #320C9B",
".. c #2E1297",
"X. c #2A109A",
"o. c #381194",
"O. c #2D0FA3",
"+. c #310FA3",
"@. c #340FAC",
"#. c #3B0FAF",
"$. c #2D11A4",
"%. c #3815A2",
"&. c #350EB3",
"*. c #3D0DB6",
"=. c #370EBB",
"-. c #3B0EBB",
";. c #3211B1",
":. c #3A12B6",
">. c #3C12BB",
",. c #4E169F",
"<. c #432E9A",
"1. c #4B349A",
"2. c #513D93",
"3. c #4315AC",
"4. c #4514B6",
"5. c #4213BE",
"6. c #4C17BF",
"7. c #441BBB",
"8. c #5D1DB7",
"9. c #492CA7",
"0. c #4324AF",
"q. c #4B26AF",
"w. c #4C32A3",
"e. c #5134A1",
"r. c #5C3CA6",
"t. c #4D29B3",
"y. c #4A20BD",
"u. c #552CB7",
"i. c #552AB8",
"p. c #5B2DBD",
"a. c #5831B3",
"s. c #6336B7",
"d. c #564C80",
"f. c #59468E",
"g. c #5B498B",
"h. c #564191",
"j. c #584390",
"k. c #624794",
"l. c #644894",
"z. c #3C0DC4",
"x. c #3F0CCB",
"c. c #3D10C6",
"v. c #410EC6",
"b. c #400FCA",
"n. c #410DCC",
"m. c #4717C7",
"M. c #4E16C2",
"N. c #4418C2",
"B. c #4B18C7",
"V. c #4511CF",
"C. c #4F1DCA",
"Z. c #551CCE",
"A. c #460ED6",
"S. c #470ADA",
"D. c #4B0EDE",
"F. c #500ED7",
"G. c #4510D0",
"H. c #4C14D3",
"J. c #4E10DC",
"K. c #5414D4",
"L. c #551AD3",
"P. c #5A18D0",
"I. c #5111D8",
"U. c #5A16DC",
"Y. c #530DE6",
"T. c #4E10E2",
"R. c #5D15E6",
"E. c #6115E3",
"W. c #6A1CE0",
/* pixels */
"6 ~ ! ! ~ Q ~ ! ~ 7 7 7 ~ ~ ^ 6 1 Q ~ ^ ~ ~ ~ / 7 3 3 1 1 Q ~ ( ",
"~ ~ ~ ~ ~ ~ ^ ( ^ ^ ^ ~ Q ~ ~ ~ Q Q ~ / ~ Q 1 1 ~ ~ ~ 3 1 7 7 ~ ",
"~ ~ ~ ( ~ ~ ~ ~ 6 ~ ~ ~ ^ ( ^ 6 < 1 ~ ~ Q 1 1 6 1 1 Q 6 1 6 1 3 ",
"~ ~ ~ ~ ^ ~ ~ / ~ ~ ~ ~ ~ ! ( 7 2 7 ~ ~ ~ ~ ( ( ~ 1 1 1 1 ~ 7 ~ ",
"~ Q 6 ~ ( Q ~ ( ~ 1 ~ ~ 1 1 1 V A ~ ~ ~ 7 ~ ~ ~ 7 6 6 < 6 ~ ! 6 ",
"~ ~ 6 ~ 7 Q Q ( Q 6 ~ 1 1 2 4 R Y H F 7 < 3 ~ ~ 3 < < 1 ~ Q 7 6 ",
"^ ~ ~ ~ Q 1 Q ~ Q ~ ( J Y r.i.L.H.y.t.d.B 1 ~ 7 4 1 Q ~ ! 1 6 6 ",
"6 1 ~ ~ ~ 1 1 Q ~ ~ J r.R.Y.Y.E.W.G.z.V.e.S 3 V Z 3 ~ Q ! ~ 1 < ",
"~ / / Q ~ Q Q 6 F R w.G.b.-.@.>.Z.I.*.| :.C.I 4 2 1 ~ Q ! 6 6 1 ",
"Q ( ~ Q ~ ~ 1 1 V 9.b.&.X.| ' } O.v.F.} { ;.0.S 6 < 1 Q 6 6 1 1 ",
"~ ^ ( ~ ~ ~ ~ ~ S 7.;.$.x g g g k ] #.#.x X.:.h.3 1 Q Q 6 6 1 3 ",
"6 ~ ( / ~ ~ Q 9 1.;.O._ g w = $ # a c  .x _ | t.C 1 , 1 6 1 < < ",
"~ ~ / 3 6 1 1 K y.O.` h 0 o       $ f u y g _ 7.R 1 < < 6 < < < ",
"~ ( ~ 6 Q Q 1 T :.` h r @         . q > # a x >.g.1 < 1 1 6 1 < ",
"! ~ ~ Q 7 9 2 L $._ [ t $ % O     . > % + 0 x 5.g.1 1 1 1 6 ~ ~ ",
"6 6 1 Q 4 b b L X.o.8.l d s > X   ; & . o : x :.f.4 2 n V 6 E ~ ",
"~ 3 7 6 < 2 1 P ..M.3.j & o o .   O .   @ w _ B.l.2 2 V F 1 < < ",
"7 6 Q 1 < 1 1 P %.6.' u + .     .     @ = a } U.k.1 1 < 1 < 1 1 ",
"6 ~ ~ 6 1 6 Q U B.M._ - @ .     & . . # w x :.R.j.1 1 1 1 1 1 1 ",
"Q ~ ~ ~ 6 6 1 K Z.5.} g *       ; ; - a ' K.U.H.I 1 1 6 6 1 1 1 ",
"6 ~ Q 6 6 1 1 5 a.5.$._ 0 o o . e ,.3.4.P.K.V.9.n 1 1 < 1 1 1 < ",
"Q ~ 1 < Q 6 3 1 Y L.@.| p $ $ @ : ]  .+.&.n.T.d.6 Q 1 < 1 2 3 < ",
"7 9 Q 1 1 7 ~ 1 4 s.H.:._ h p 0 i z c | n.A.9.M Q Q 1 < 1 3 3 1 ",
"1 1 E < < 6 6 1 6 D p.J.=.| ` ' ` | &.n.A.<.v 6 1 1 1 1 < < 1 E ",
"1 1 ~ 1 1 1 2 3 6 1 M u.D.z.x.S.x.z.z.c.q.N 1 Q 6 1 6 1 1 < < 1 ",
"~ ~ Q 1 Q 2 2 < < < 1 D 2.q.N.m.N.7.q.2.S ~ 1 1 < 1 6 1 6 1 1 1 ",
"~ ~ 1 3 4 G 7 < 1 6 1 6 < b m m B m b 1 Q ~ 1 6 1 1 6 6 6 < 6 6 ",
"~ ~ 3 A A ~ 1 < 1 Q 6 6 < < 1 1 6 1 6 ~ 1 6 1 1 1 1 < , 1 1 W 3 ",
"~ ~ ~ F 8 < 1 1 < 6 Q ~ 1 < 1 6 6 6 6 6 6 2 1 1 1 1 1 < 1 1 1 1 ",
"Q 6 1 1 1 ~ 7 1 1 6 1 1 1 6 1 1 6 6 1 1 1 8 2 < < 1 < 6 Q < < 1 ",
"6 1 1 Q 1 6 1 1 1 1 1 6 6 ~ 6 1 1 1 Q 6 1 7 V 4 < < < 1 Q 6 1 6 ",
"< Q Q 1 1 6 6 1 1 6 6 6 1 6 6 < < 6 1 < < 1 B V 1 1 1 1 1 < < < "
};
