/* XPM */
static char *a7d215661ca5411cf4162353789af54cVCvZPtjdIZwIirX5[] = {
/* columns rows colors chars-per-pixel */
"32 32 172 2 ",
"   c #010004",
".  c #03010A",
"X  c #050213",
"o  c #0A0312",
"O  c #07021A",
"+  c #0B031B",
"@  c #090323",
"#  c #0C042A",
"$  c #140625",
"%  c #11042C",
"&  c #0E0533",
"*  c #100433",
"=  c #190636",
"-  c #13053F",
";  c #57742D",
":  c #5A762B",
">  c #5D7B2D",
",  c #5A6D37",
"<  c #5C7534",
"1  c #5E7C31",
"2  c #5D743B",
"3  c #5E7939",
"4  c #617D2E",
"5  c #617737",
"6  c #617D32",
"7  c #61753E",
"8  c #627C3B",
"9  c #130642",
"0  c #14074B",
"q  c #1E074A",
"w  c #15084E",
"e  c #160853",
"r  c #1A0953",
"t  c #1B075C",
"y  c #1A095D",
"u  c #220946",
"i  c #220A4B",
"p  c #280A4E",
"a  c #250950",
"s  c #28085E",
"d  c #300D5D",
"f  c #1C0A67",
"g  c #1E0968",
"h  c #310D6C",
"j  c #220C7D",
"k  c #2D0B7E",
"l  c #330C71",
"z  c #51575E",
"x  c #545D5B",
"c  c #566B42",
"v  c #5B6D43",
"b  c #5F6C4C",
"n  c #5E7342",
"m  c #5F7149",
"M  c #5C6653",
"N  c #5E6954",
"B  c #5B635B",
"V  c #616F49",
"C  c #617543",
"Z  c #647B42",
"A  c #697C45",
"S  c #627349",
"D  c #667458",
"F  c #5A5D63",
"G  c #53556C",
"H  c #58556D",
"J  c #57596E",
"K  c #5D5B6D",
"L  c #4E447F",
"P  c #554F75",
"I  c #534B78",
"U  c #5A4E7E",
"Y  c #5C5479",
"T  c #615E6C",
"R  c #5A6161",
"E  c #5E802E",
"W  c #5F8030",
"Q  c #63812E",
"!  c #68882F",
"~  c #648331",
"^  c #698633",
"/  c #678933",
"(  c #698932",
")  c #6A8A34",
"_  c #668339",
"`  c #66833F",
"'  c #69823D",
"]  c #240D83",
"[  c #260C8A",
"{  c #290B8F",
"}  c #3C0E84",
"|  c #390F8F",
" . c #270E92",
".. c #2A0E94",
"X. c #2B0E9B",
"o. c #330D94",
"O. c #3B0F95",
"+. c #360E99",
"@. c #3F1397",
"#. c #37109F",
"$. c #3D129D",
"%. c #2E0FA2",
"&. c #2F0FAA",
"*. c #320DA4",
"=. c #300FAC",
"-. c #3412A4",
";. c #3B11A4",
":. c #3418A4",
">. c #3411AD",
",. c #3E13A9",
"<. c #3B11AE",
"1. c #3819A8",
"2. c #330EB0",
"3. c #3C0DB5",
"4. c #360BB8",
"5. c #3B0DBB",
"6. c #3C12B4",
"7. c #3E1BB4",
"8. c #3C12BA",
"9. c #44118E",
"0. c #411595",
"q. c #481298",
"w. c #4C3B8C",
"e. c #513E8F",
"r. c #4E3B94",
"t. c #5119AF",
"y. c #4513B4",
"u. c #4212BC",
"i. c #451CBA",
"p. c #4D1FBE",
"a. c #492BA5",
"s. c #4522AF",
"d. c #4C29AF",
"f. c #522FAA",
"g. c #5334A5",
"h. c #573AA1",
"j. c #5D3AA4",
"k. c #4420B0",
"l. c #4921B6",
"z. c #4E29B1",
"x. c #582DB7",
"c. c #4C4280",
"v. c #554981",
"b. c #594C80",
"n. c #54438A",
"m. c #58448E",
"M. c #564490",
"N. c #5C4694",
"B. c #3E0DC3",
"V. c #3E10C1",
"C. c #420FC5",
"Z. c #420CCC",
"A. c #480ECF",
"S. c #4317C1",
"D. c #4B12C5",
"F. c #4412C9",
"G. c #4D14CB",
"H. c #4B18CC",
"J. c #5517C5",
"K. c #531EC3",
"L. c #5014CD",
"P. c #5019CC",
"I. c #460FD0",
"U. c #4E0FD4",
"Y. c #4D12D5",
"T. c #4D11DB",
"R. c #5316D0",
"E. c #5C16D1",
"W. c #5419D0",
"Q. c #5514DB",
"!. c #4F20C2",
"~. c #4F0AE4",
/* pixels */
"4 ~ ! ! ~ Q ~ ! C V 6 6 ~ ~ ~ 4 > Q ~ ^ ~ ~ ~ ^ 6 1 1 > > Q ~ ( ",
"~ ~ ~ ~ ~ ~ ^ ( _ A ^ ~ Q ~ ~ ~ Q ! ~ / ~ Q > > ~ ~ ~ 1 > 6 6 ~ ",
"~ ~ ~ ( ~ ~ ~ ~ 4 Z 8 ~ ^ ( ~ 6 : > ~ ~ Q > > 4 > > Q 4 > 4 > 1 ",
"~ ~ ~ ~ ^ ~ ~ / ~ ~ ^ ~ ^ ! ( 4 : 6 ~ ~ ~ ~ ( ( ~ > > > > ~ 6 ~ ",
"~ Q 4 ~ ( Q ~ ( ~ > ~ ~ 4 > > 4 > ~ ~ ~ 6 ~ ~ ~ 6 4 4 : 4 ~ ! 4 ",
"~ ~ 4 ~ 6 Q Q ( Q 4 ~ > > 1 8 8 3 8 ~ Q : 1 ~ ~ 1 : : > ~ Q 6 4 ",
"^ ~ ~ ~ Q > Q ~ Q ~ / 8 R e.a.d.z.a.v.B 3 1 ~ Q > > Q ~ ! > 4 4 ",
"Q > ~ ~ ~ > > Q ~ ~ ` M.P.R.D.B.4.=.5.i.L 6 1 < > > ~ Q ! ~ > : ",
"S Z / Q ~ Q Q 4 Q 3 N.Q.U.G.J.L.u.%.X.&.1.P H K > > ~ Q ! 4 4 > ",
"n D _ 8 ~ ~ > > 3 m.Y.Z.6.<.<.u.D.3. ...=.u.g.b 4 : > Q 5 C > > ",
"~ ^ ' Z Z _ ~ Q R H.5.%.X...o.*.$...[ j ..2.l.v > > 8 C 6 5 > 1 ",
"4 ~ ) ~ 8 ~ Q 6 n.V.>. .] f 9 t O.| y y ] X.8.J ~ > ; < 4 > : : ",
"~ ~ ~ > Q > > C a.=.X.j w # . X - } q & f X.2.r._ > : : 4 : : : ",
"~ ( ~ 4 Q Q > B S.&...y X . . . . l u O e  .&.i.b > : > > 4 > : ",
"! ~ ~ Q Q ~ > z 6.%.] 9 . . .   $ l % . # j 2.K.N 4 > > > 4 ~ ~ ",
"Q 4 > Q > : ; I >...] 9 X + $ o p = . . & ] 6.W.Y n : > > Q E ~ ",
"~ 1 6 4 : : > x -...0.i q l u . .   X O 0 ] D.W.U v : > Q > : : ",
"6 4 Q > : > > x -.;.t.r 9.a   o $ . X @ g y.G.G.M > > : > : > > ",
"4 ~ ~ 4 > 4 Q x :.6.y.k 9.#   o d + O e O.E.A.l.c > > > > > > > ",
"Q ~ ~ ~ Q 4 > S a.D.,.$.q.% . . s h h +.,.C.~.f.< > 1 4 4 > > > ",
"4 ! ~ 5 7 > > 1 c.L.y.;.@.* X . * o.y.#.-.Z.I.P > > 2 < < : > : ",
"6 8 3 M 8 6 > > F H.8.-.+.- O # # t o.o.3.Z.7.M Q Q > < B v > : ",
"T K 6 > > 4 Q > v h.Y.8.>.j 0 e e y [ *.B.F.n.3 Q Q > : < n > > ",
"2 3 E : : 4 4 3 C C j.W.8.*.[ ] { *.3.*.8.m.< 4 > > > > : : > E ",
"> > ~ > > 3 B M 4 > v x.T.B.5.5.B.Z.B.S.r.3 > Q 4 > 4 > > : : > ",
"~ ~ Q > ~ F b.< : : > V U g.!.p.k.s.w.G B 6 > > : > 4 4 4 > > > ",
"~ ~ > > > S m : > 4 3 1 : , v v n v < > m m > 4 > > 4 4 4 : 4 4 ",
"~ ~ > > > Q > : > Q 7 5 ; ; > > 4 > 4 Q N N.v > > > : ; > > W 1 ",
"~ ~ ~ ~ 4 : > > : 5 6 ~ > : > 4 4 4 4 4 n Y 2 > > > > : > > > > ",
"Q 4 > > > ~ 6 > > b 2 > > 4 > > 4 4 > > > 6 > : : > : 4 Q : : > ",
"4 > > Q > 4 > > 2 N > 4 4 ~ 4 3 < > Q 4 > 4 > > : : : > Q 4 > 4 ",
": Q Q > > 4 4 > 2 S 4 4 > 4 4 , : 4 > : : > > > > > > > > : : : "
};
