/* XPM */
static char *_a677a2789734a82ff826fd3935e06d0r5HQImepNL4yyV6P[] = {
/* columns rows colors chars-per-pixel */
"32 32 146 2 ",
"   c #29371F",
".  c #202021",
"X  c #282525",
"o  c #292825",
"O  c #2F2629",
"+  c #273320",
"@  c #2A3323",
"#  c #2E3825",
"$  c #323725",
"%  c #343C27",
"&  c #38362F",
"*  c #363B29",
"=  c #3C3C2D",
"-  c #382F31",
";  c #453336",
":  c #483035",
">  c #423D34",
",  c #4B3B3D",
"<  c #354326",
"1  c #384626",
"2  c #3C432A",
"3  c #3E4C29",
"4  c #3E5325",
"5  c #444C2B",
"6  c #415727",
"7  c #445B27",
"8  c #45542B",
"9  c #4B532F",
"0  c #475C29",
"q  c #4B5E2A",
"w  c #474A31",
"e  c #4D4B36",
"r  c #4F433E",
"t  c #4F4A39",
"y  c #504E37",
"u  c #5A483F",
"i  c #4D5434",
"p  c #55543B",
"a  c #5C543E",
"s  c #4C6527",
"d  c #4C632A",
"f  c #4B6929",
"g  c #52662D",
"h  c #536D2B",
"j  c #56722B",
"k  c #5A762B",
"l  c #5D7B2D",
"z  c #5E7C30",
"x  c #60722F",
"c  c #617E2E",
"v  c #637732",
"b  c #617E30",
"n  c #6B7935",
"m  c #5A5141",
"M  c #5D5350",
"N  c #644140",
"B  c #6D4D43",
"V  c #6E404A",
"C  c #644D4C",
"Z  c #78454B",
"A  c #6C594D",
"S  c #7A4550",
"D  c #635554",
"F  c #705354",
"G  c #7C5E59",
"H  c #83554D",
"J  c #894B57",
"K  c #8B4D58",
"L  c #8D525C",
"P  c #95515D",
"I  c #A25F5B",
"U  c #82605E",
"Y  c #A95564",
"T  c #A55C68",
"R  c #BA5D6F",
"E  c #876261",
"W  c #8A6265",
"Q  c #926667",
"!  c #956768",
"~  c #9C6C6E",
"^  c #9D706F",
"/  c #9C6C70",
"(  c #9B7274",
")  c #A06E72",
"_  c #BF6E7A",
"`  c #AD7479",
"'  c #AF787C",
"]  c #B17379",
"[  c #B47B7F",
"{  c #C36374",
"}  c #CD6377",
"|  c #CE6478",
" . c #C66B7A",
".. c #CB6C7C",
"X. c #D2677B",
"o. c #D36A7C",
"O. c #C0767F",
"+. c #5E802E",
"@. c #5F8030",
"#. c #63822F",
"$. c #68882F",
"%. c #648231",
"&. c #658531",
"*. c #658432",
"=. c #698632",
"-. c #698734",
";. c #658832",
":. c #668832",
">. c #698933",
",. c #6A8A34",
"<. c #B97E81",
"1. c #DA6D80",
"2. c #CD7A85",
"3. c #DF7687",
"4. c #D47A87",
"5. c #DE7988",
"6. c #E37285",
"7. c #B78083",
"8. c #C08387",
"9. c #C5858A",
"0. c #C9868C",
"q. c #CE8A8F",
"w. c #D3818B",
"e. c #D68F94",
"r. c #DF8993",
"t. c #DA9197",
"y. c #DD9299",
"u. c #E8808F",
"i. c #E08791",
"p. c #ED8A97",
"a. c #E19299",
"s. c #E8969D",
"d. c #E5989E",
"f. c #EE9CA2",
"g. c #F29DA4",
"h. c #EDA6AA",
"j. c #EEACAF",
"k. c #F6A2A8",
"l. c #F8A4AA",
"z. c #F8AAAF",
"x. c #F8ABB0",
"c. c #E9B5B6",
"v. c #E8BABA",
"b. c #FAB0B5",
"n. c #FBB6B9",
"m. c #FDC4C5",
/* pixels */
"c &.#.#.&.#.&.#.%.b b b %.&.=.c l #.%.-.&.&.%.&.b z z l l #.%.>.",
"%.&.&.&.&.%.-.>.=.=.=.&.#.&.&.%.#.#.&.:.&.#.l l %.%.%.z l b b &.",
"%.%.&.>.&.%.&.%.c %.%.%.=.>.=.b k l &.%.#.l l c l l #.c l c l z ",
"%.&.&.&.=.&.%.:.%.&.&.%.&.$.>.c l b &.%.%.&.>.>.%.l l l l %.b %.",
"%.#.c &.>.#.%.>.%.l &.%.l l l l l &.&.&.b &.&.%.b c c k c %.#.c ",
"%.%.c &.b #.#.&.l k z k l l #.%.#.&.&.l j l z b z k k l %.#.b c ",
"=.&.%.%.#.l c h 1 < < < d k c %.&.&.c 0 < < < 3 h l #.%.#.l c c ",
"c l %.&.&.l s p E W W E a q c &.&.%.q A W W W G 9 h %.#.#.%.l l ",
"%.:.:.#.%.#.4 C a.w.` q.F   4 6 4 4 @ ~ 9.] r.0.> d %.#.#.c c l ",
"#.>.&.#.%.%.0 m ~ S ; ' ( M M M M M D 7.W : L ! w s l #.c c l l ",
"&.-.>.&.&.&.c g * X , 8.j.c.v.v.v.v.c.h./ - o 2 h l #.#.c c l z ",
"c %.,.:.%.&.#.l 7 & ' f.l.n.m.m.m.m.b.l.d.W # h %.l k l c l k l ",
"&.&.&.z c l l &.h > 0.l.k.l.x.x.x.z.l.k.k.) * l &.l k k l k k k ",
"&.>.%.c #.#.l %.d > 0.l.k.k.k.k.k.k.k.k.k.) % j %.l k l l c l l ",
"#.&.%.#.#.&.l l d > 0.l.k.k.k.k.k.k.k.k.k.) % j c c l l l c %.%.",
"c c l #.l k j h i U y.k.k.k.k.k.k.k.k.k.k.9.A q k l l l l #.+.%.",
"%.z b c k k l 0 r e.k.k.k.k.k.k.k.k.k.k.k.k.[ = h l k l #.l l l ",
"b c #.l k l l d t <.f.k.k.k.k.k.k.k.k.k.l.d.~ 2 h l l l l l l l ",
"c %.%.c l c c l g m <.s.g.k.k.k.k.k.k.g.a.^ e h k l l l l l l l ",
"#.%.%.%.c c l #.c d u T i.g.g.g.g.g.f.4.L t d k l l l c c l l l ",
"c &.#.c c l l l h 5 Z R ................Y N 5 k l l l k l l l k ",
"#.#.l k #.c @.f i Q 2.3.o.} } } } } | 1.5.O.G 8 k #.l k l l l k ",
"#.c #.l l b %.7 r t.g.u.6.6.{ K P o.6.6.p.l.<.* h #.l l l l l l ",
"l l +.l k c c d y ~ `  .X.R V . O J { X._ ` E 5 j l l l k l l +.",
"l l %.l l l l l g < = H I B $ + + = H I B * 3 k l l c l l k k l ",
"%.&.#.l #.k k k k h j v n x j h k l v n v j j l k l c c c l l l ",
"%.%.l l l %.c k l c c l k k l l %.l k l #.%.l c l l c c c k c c ",
"&.%.l l l #.l l l #.c c j j l l c l l %.l c l l l l k k l l @.z ",
"&.&.%.%.c k l l l c #.%.l k l c c c c c c l l l l l l k l l l l ",
"#.c l l l %.b l c c l l l c l l c c l l l c l k k l k c #.k l l ",
"c l l #.l c l l l l l c c %.c l l l #.c l c l l l k k l c c l c ",
"k #.#.l l c c l l c c c l c c j k c l k k l l l l l l l l k k l "
};
