/* XPM */
static char *_aee933eae144f05dec9363adeca722be2wqQ8W4yyJQ9YE3[] = {
/* columns rows colors chars-per-pixel */
"32 32 138 2 ",
"   c #1D201F",
".  c #272324",
"X  c #2D2929",
"o  c #342D2E",
"O  c #2E3425",
"+  c #323827",
"@  c #3C3B30",
"#  c #463532",
"$  c #5A363E",
"%  c #374822",
"&  c #3B4D25",
"*  c #3E5226",
"=  c #415625",
"-  c #445C26",
";  c #44552A",
":  c #4A532D",
">  c #435B28",
",  c #4B5B2B",
"<  c #50572D",
"1  c #4F423E",
"2  c #524135",
"3  c #4E5632",
"4  c #4E5833",
"5  c #515535",
"6  c #595934",
"7  c #5A563E",
"8  c #4A6027",
"9  c #4C642A",
"0  c #51642E",
"q  c #526C2A",
"w  c #55722B",
"e  c #5A762B",
"r  c #5D7B2D",
"t  c #5C7730",
"y  c #5E7D30",
"u  c #617E2E",
"i  c #617E30",
"p  c #613C42",
"a  c #6B3E48",
"s  c #564642",
"d  c #5B4346",
"f  c #5D5143",
"g  c #654E4C",
"h  c #6B494D",
"j  c #75444D",
"k  c #605443",
"l  c #67544A",
"z  c #6B554E",
"x  c #725E40",
"c  c #615653",
"v  c #6E5252",
"b  c #675857",
"n  c #6F5950",
"m  c #735455",
"M  c #735953",
"N  c #775758",
"B  c #755F5F",
"V  c #795A58",
"C  c #7F6745",
"Z  c #814953",
"A  c #805359",
"S  c #88555B",
"D  c #855E5D",
"F  c #885B5D",
"G  c #9C515E",
"H  c #856A47",
"J  c #856449",
"K  c #9D5361",
"L  c #9A5F68",
"P  c #AF5B69",
"I  c #B45A6A",
"U  c #BB5D6E",
"Y  c #866062",
"T  c #8B6464",
"R  c #906568",
"E  c #9C666B",
"W  c #926968",
"Q  c #9F6F71",
"!  c #A06E72",
"~  c #BF6373",
"^  c #C66475",
"/  c #CB6376",
"(  c #CF6579",
")  c #CC6E7D",
"_  c #D2677B",
"`  c #D2687B",
"'  c #C5717D",
"]  c #5F802E",
"[  c #5F8030",
"{  c #63822F",
"}  c #68882F",
"|  c #648231",
" . c #658431",
".. c #658534",
"X. c #688632",
"o. c #698734",
"O. c #638832",
"+. c #678832",
"@. c #6A8833",
"#. c #6A8A34",
"$. c #B77B80",
"%. c #BF7981",
"&. c #BB7F83",
"*. c #D56E80",
"=. c #C57F86",
"-. c #C97E87",
";. c #DE7284",
":. c #D27A86",
">. c #E27386",
",. c #B98285",
"<. c #BE8388",
"1. c #C08186",
"2. c #C38488",
"3. c #CD8A8E",
"4. c #DF8691",
"5. c #D48D93",
"6. c #DC8E95",
"7. c #DB9297",
"8. c #E4818F",
"9. c #E18F98",
"0. c #E3969C",
"q. c #EE949D",
"w. c #E4999F",
"e. c #EE9DA3",
"r. c #F29EA4",
"t. c #ECA4A8",
"y. c #F4A1A7",
"u. c #F6A2A8",
"i. c #F8A3A9",
"p. c #F8AAAF",
"a. c #F9AEB2",
"s. c #EEB2B4",
"d. c #ECB5B6",
"f. c #ECBBBC",
"g. c #EDBDBD",
"h. c #FCBCBE",
"j. c #FCBFC0",
"k. c #FCC1C2",
/* pixels */
"u  .{ {  .{  .{ | i i i |  .X.u r { | o. . .| ..i y y r r { | @.",
"|  . . . .| o.@.X.X.X. .{  . .| { {  .+. .{ r r | | | y r i i  .",
"| |  .@. .|  .| u | | | X.@.X.i e r  .| { r r u r r { u r u r y ",
"|  . . .X. .| +.|  . .|  .} @.u e i  .| |  .@.@.| r r r r | i | ",
"| { u  .@.{ | @.| r  .| r r r r r  . . .i | | | i u u e u | { u ",
"| | u  .i { { @.{ u | r r r { | {  . .u e y | | y e e r | { i u ",
"X. .| | { r {  .q * > * 9 e u |  . .u - * * ; w r r { | { r u u ",
"{ r |  . .r r q 7 v m m k , u  . .{ 0 l m m v 5 q r | { { | r e ",
"| O.+.{ | { u & Y 9.%.1.Q O * - > * @ &.$.-.6.g = r | { { u u r ",
"{ @. .{ | | r ; n L $ N ,.b c c c c B <.d a E f 8 e r { u u r r ",
" .o.@. . . .| i , O o R t.d.g.g.g.f.s.w.m X + 0 r r { { u u r y ",
"u | #.+.|  .{ u r % v 0.u.a.j.k.k.h.p.u.5.1 > | | r e r u r e e ",
" . ...y u r r |  .& N r.u.u.i.i.i.i.u.i.0.s 9 |  .r e e u r e e ",
" .@.| u { { r | i * N e.u.u.u.u.u.u.u.i.0.s - r | r e r r u r e ",
"{  .| { {  .r r t : Y r.u.u.u.u.u.u.u.u.0.z , e u u r r r u | | ",
"u u r { r e w e = M 7.y.u.u.u.u.u.u.u.u.y.3.z 9 e r e r r { ] | ",
"| y i u e e r | * V w.u.u.u.u.u.u.u.u.u.y.w.2.f - r e r { r e e ",
"i u { r e r r u q 5 W 0.r.u.u.u.u.u.u.r.7.R &.g = r r e r e r r ",
"u | | u r u u u { w 5 S :.r.r.r.r.r.q.' A ! 3.g = r r r r r r r ",
"{ | | | u u r { { 9 2 G ( ) ) ) ) ) ) ^ K =.T 3 q r r u u r r r ",
"u  .{ u u r r ] r & h 4.8.` ( / / ( _ ;.:.D 3 w r r r e r r r e ",
"{ { r e { u y r r & N e.q.>.~ j Z ( >.*.F 4 w ] { { r e r r r e ",
"{ u { r r i | r r q 7 E ) P p   . j U I # 9 u r { { r e r r r r ",
"r r ] e e u u r u u 9 6 J x & & & : C H < w r u r r r r e e r ] ",
"r r | r r r r r u r e r u u r u i |  .{ r r r { u r u r r e e r ",
"|  .{ r { e e e e e r u { u u u |  .] r y | r r e r u r u r r r ",
"| | r r r | u e r u r u e e r r | e e r | | r u r r u u u e u u ",
" .| r r r { r e r { u u w w r r u r r | r u r r r r e e r r [ y ",
" . .| | u e r r e u { | r e r u u u u u u r r r r r r e r r r r ",
"{ u r r r | i r r u r r r u r r u u r r r u r e e r e u { e e r ",
"u r r { r u r r r r r u u | u r r r { u r u r r e e e r { u r u ",
"e { { r r u u r r u u u r u u w e u r e e r r r r r r r r e e e "
};
