/* XPM */
static char *result[] = {
/* columns rows colors chars-per-pixel */
"32 32 150 2 ",
"   c #161D1B",
".  c #272525",
"X  c #262C22",
"o  c #283620",
"O  c #343E27",
"+  c #333329",
"@  c #353C29",
"#  c #362F30",
"$  c #3F3033",
"%  c #3D3931",
"&  c #492E35",
"*  c #423D34",
"=  c #593A3D",
"-  c #354425",
";  c #3A4527",
":  c #364824",
">  c #3B4C25",
",  c #364228",
"<  c #48492E",
"1  c #425626",
"2  c #415826",
"3  c #495E27",
"4  c #445329",
"5  c #4A562E",
"6  c #475B29",
"7  c #485F28",
"8  c #464035",
"9  c #4D423C",
"0  c #50483B",
"q  c #4E5036",
"w  c #555731",
"e  c #57543C",
"r  c #5B533E",
"t  c #605A36",
"y  c #725F3E",
"u  c #496327",
"i  c #4E652A",
"p  c #4E682A",
"a  c #536C2C",
"s  c #56732B",
"d  c #5A762B",
"f  c #5D7B2D",
"g  c #5F7D30",
"h  c #617E2E",
"j  c #617E30",
"k  c #323044",
"l  c #38364A",
"z  c #373F60",
"x  c #493D4F",
"c  c #693D47",
"v  c #5C4648",
"b  c #4B495D",
"n  c #614B4A",
"m  c #684E4F",
"M  c #73434B",
"N  c #6B534F",
"B  c #6E5A4E",
"V  c #6A4D50",
"C  c #754B51",
"Z  c #744D59",
"A  c #755356",
"S  c #775C55",
"D  c #7B595B",
"F  c #7C6743",
"G  c #484C6A",
"H  c #7F5662",
"J  c #716160",
"K  c #6F667A",
"L  c #924D59",
"P  c #84575D",
"I  c #896949",
"U  c #835863",
"Y  c #8D5E62",
"T  c #9E5563",
"R  c #A35563",
"E  c #A85967",
"W  c #B45D6C",
"Q  c #8F6467",
"!  c #86616F",
"~  c #806868",
"^  c #94686B",
"/  c #9A6B6F",
"(  c #896A7F",
")  c #9F7070",
"_  c #B7606F",
"`  c #A06B70",
"'  c #B06E76",
"]  c #A77277",
"[  c #A8767C",
"{  c #B2757A",
"}  c #B2797E",
"|  c #C35F70",
" . c #C46274",
".. c #CB6677",
"X. c #C56B79",
"o. c #D36B7D",
"O. c #D86B7E",
"+. c #CB707E",
"@. c #5E802E",
"#. c #5F8030",
"$. c #63822F",
"%. c #68882F",
"&. c #648331",
"*. c #698733",
"=. c #668832",
"-. c #698932",
";. c #6D758B",
":. c #896C87",
">. c #926E88",
",. c #94788F",
"<. c #AC758A",
"1. c #BE7E83",
"2. c #DD6F81",
"3. c #CA7C89",
"4. c #D97987",
"5. c #E27386",
"6. c #BE8085",
"7. c #B094A1",
"8. c #A7A9B3",
"9. c #C5848A",
"0. c #C8888D",
"q. c #CB898E",
"w. c #D8818D",
"e. c #C78690",
"r. c #C88A96",
"t. c #D68C93",
"y. c #DF8D96",
"u. c #C8919D",
"i. c #DA9399",
"p. c #E38C96",
"a. c #EB8D98",
"s. c #E5949C",
"d. c #EA929B",
"f. c #E6989E",
"g. c #E79BA2",
"h. c #EB9BA2",
"j. c #F29FA6",
"k. c #D8B9B9",
"l. c #ECA2A6",
"z. c #F3A0A6",
"x. c #F7A3A9",
"c. c #F9A6AB",
"v. c #F4A8AE",
"b. c #F8A9AE",
"n. c #E8B5B9",
"m. c #F5B3B4",
"M. c #F2B6B8",
"N. c #F7BABC",
"B. c #F2C2C1",
"V. c #FCC1C2",
/* pixels */
"h *.&.-.=.$.*.%.&.j j j &.&.*.h h h *.*.-.&.&.=.g g f g f &.&.-.",
"$.&.&.=.&.&.*.%.*.*.*.*.&.&.&.j $.&.$.*.&.j g g j j &.g f &.&.&.",
"&.&.&.-.&.&.&.&.h j &.&.*.*.*.h s f $.*.j g g g g f &.$.h j f g ",
"&.&.&.&.*.*.&.&.&.&.=.&.*.%.%.h f &.&.&.&.=.-.=.&.f f s f j j j ",
"&.$.&.&.-.$.&.*.&.f =.=.f f #.#.f &.&.&.&.&.=.&.h h h d h &.&.f ",
"&.&.f &.$.$.$.%.f s f s f f &.#.&.&.&.f s s d g h d d h &.f j h ",
"&.&.j &.h h h a , , - : p d #.=.=.&.f 4 , O O 4 s h $.$.$.h h h ",
"&.f &.&.&.h u e ^ / ^ ^ n 7 #.#.&.f 5 D / / / S 4 s $.$.%.&.f d ",
"&.=.=.@.&.$.1 n y.3.` q.m o > > > : @ <.{ ' p.] @ a h $.%.h h f ",
"f -.=.#.&.&.u r Y c $ } ) H J J J J ~ 0.V & P S 4 a h $.h h f h ",
"=.-.-.=.&.&.j a O . v q.m.N.B.B.B.B.M.l.Q # X 4 d f h $.j j h g ",
"j &.-.&.&.&.&.h 3 % 1.z.c.N.V.V.V.N.b.z.f.A - f *.h s h j f d d ",
"&.=.=.g g g h $.a * q.x.j.c.c.c.b.c.c.c.z.D > j $.f d s f f s s ",
"*.-.&.h $.&.f $.i * e.g.d.g.h.x.z.f.f.f.h.D - d $.h h f f $.f f ",
"&.&.&.$.h $.f f i 9 6.Y Z Z [ j.t.U Z U 9.P ; s h h f f f h $.&.",
"j h j h f s s i q ) i.7.b k ! j.e.x l K u.0.B 6 f h f f f @.@.@.",
"&.g j h f f f u 9 i.v.k.;.z ( z.r.G G 8.n.x.^ : d f d @.@.f f f ",
"g f h f s d f a q ^ l.B.7.:.<.w.3.>.,.k.M.9.B 2 d f @.d d f d f ",
"$.&.j h f h $.s 7 N ] t.f.z.p.+.4.g.h.s.+.B 1 d f f f f f f f @.",
"h &.&.$.$.h f u v } C R w.d.p.p.p.d.p.X.M < i d f f f @.$.d f d ",
"f *.$.h f f f u 0 { T _ o.| | |  . .X.2.W c > f @.f f d f f h d ",
"&.$.f f $.j @.s u 8 & W O.O.o.....o.2.a.s.N : f $.$.f d f d h d ",
"$.f $.f f g &.f d 6 + E O.O.R = M ..5.d.g.D : d $.@.f d f f f f ",
"@.f @.f d f g h j s + L | L &   . c W X.Y e i h f f f f d d f f ",
"@.@.&.f f h f f h s 1 y I t ; > > 5 y F w p f $.h d h h h s d d ",
"$.$.$.f &.s f d d d h h h h h d h %.%.$.$.$.d f d f h h h d f f ",
"$.$.f g h $.h d d h h h h d h h $.d d f $.$.f h d f h h h d h h ",
"%.$.g f f $.f d h h h h a d d h h h f $.f f f f d f d d h h $.h ",
"&.&.&.&.h d h h d h h h h d d h h h h h @.f f f f f f d d f f f ",
"$.f f f h h j f h h h d h h f h h h h h f f f d d f d h h f d f ",
"j f f &.f h g d d h h h h h h h d f h h d $.@.d d d d f @.@.f $.",
"s $.&.f f j h f h h h h h h h d d h h d d @.@.f @.@.h f f d d d "
};
