/* XPM */
static char *f787a1641301457dea95c059675121e8aythg2KRUUbREFXv[] = {
/* columns rows colors chars-per-pixel */
"32 32 79 1 ",
"  c #371E06",
". c #2A2F0F",
"X c #32250A",
"o c #3C3612",
"O c #3B3C13",
"+ c #432106",
"@ c #4B2A06",
"# c #422F0B",
"$ c #542F07",
"% c #502F09",
"& c #4E3007",
"* c #45320E",
"= c #4B330A",
"- c #48390E",
"; c #553207",
": c #543309",
"> c #5A340A",
", c #54390A",
"< c #5D3C0A",
"1 c #413410",
"2 c #453C11",
"3 c #483F12",
"4 c #6A3B07",
"5 c #623609",
"6 c #653A0B",
"7 c #6B3D0B",
"8 c #753F07",
"9 c #743F09",
"0 c #3C4216",
"q c #3E4619",
"w c #55400E",
"e c #5F430D",
"r c #454113",
"t c #4B4413",
"y c #444917",
"u c #4F4C16",
"i c #444A19",
"p c #484F1C",
"a c #524A15",
"s c #40541D",
"d c #4E541C",
"f c #64410B",
"g c #6D400C",
"h c #74440B",
"j c #7A460A",
"k c #7C490B",
"l c #695316",
"z c #475A20",
"x c #495D23",
"c c #4D6324",
"v c #506524",
"b c #526C27",
"n c #546E29",
"m c #567027",
"M c #56722A",
"N c #5A762B",
"B c #5D7B2D",
"V c #5E7D30",
"C c #617E2E",
"Z c #617E30",
"A c #834D0A",
"S c #86500B",
"D c #8A530B",
"F c #8B530B",
"G c #5F802E",
"H c #5F8030",
"J c #63822F",
"K c #65812F",
"L c #65852F",
"P c #68882F",
"I c #628131",
"U c #648030",
"Y c #638431",
"T c #658431",
"R c #658534",
"E c #688632",
"W c #698734",
"Q c #678832",
"! c #688833",
/* pixels */
"CTLLTJTLIZZZUTTCBJUWTTURZVVBBKU!",
"UTTTTUW!EEETKTTUJKTQTJBBIIIVBZZT",
"UUT!TUTYCUUUE!EZNBTUJBBCBBJJBCBV",
"ITTTETIQTTTUTP!CNZTUUT!!IBBBBUZI",
"IJCT!KU!IBTYBBBBBTTTZUUUZCCNCILC",
"UICQIIK!KCIBBbrrzTTCNVIUVNNBIJZC",
"ETIMbbnmbNQYHx6jOVJJBNVBBNJTLBCC",
"CBv-ff<<,2uut2&;*uaututtttdvCTBN",
"IQb=kDA776jhkASjhj777j7654j,nJCB",
"J!n.@jA6jjAg6DA6jAj7kkkghkDenZBB",
"TZ2gkAAgADDA6g6jAAk7SDDhjj$OBCBV",
"CN-kAAA66hDDA>hDDSA7AAAhjAjwmBNN",
"TIq;kDS7kADDg66ADDShDDDhkDjaNBNN",
"EU37ADS7jjk77Dj6Akh7hkk7jA5omJBN",
"LTx#:%755546hjj7h6>67kkhhAA=cCII",
"CCNbcs0yiyiiiO +X001#*****#ONJGI",
"IVZCNBBIBJBNNc:9oNBNmmmMmbbNJBNN",
"ZCJBNBBCCCBBBc<k2JTICUICCBBBBNBB",
"CUUCBCCCJJCNBc6A3ULTZZBBBBBBBBBB",
"JIIICCBKLLTJJcfA3HCBBBNNNBBCCBBB",
"CTJCCBBGBCCBIcfA3NBBBNBBBBBNBBBN",
"KLBNJCVBBBBBBcfkrBCBBBBGJJBNBBBN",
"KCJBBZIBBCZBNcfkrNBIJIBBJCBNBBBB",
"BBGNNCCBCCCBNcfArBJTCCBCBBBBNNBG",
"BBIBBBBBCBNBCvfA3ILJBBBJCBCBBNNB",
"UTJBJNNNNNBCKcfA3IGBVIBBNBCCCBBB",
"UIBBBICNBCBCNx>8oNNBIIBCBBCCCNCC",
"TYBBBKBNBJCCNcalpNCIBCBBBBNNBBHV",
"TTYUCNBBNCKIBNBCCCCCCBBBBBBNBBBB",
"JCBBBIZBBCBBBCBVCCBBBCBNNBNCJNNB",
"CBBJBCBBBBBCCUCBBBJCBCBBNNNBCCBC",
"NJJBBCCBBCCCBCCNNCBNNBBBBBBBBNNN"
};
