/* XPM */
static char *d39a0b0bca044e4cfb124dabb6428bd1nzd7jgKT7fsthTpZ[] = {
/* columns rows colors chars-per-pixel */
"32 32 125 2 ",
"   c #2F2E26",
".  c #362C2E",
"X  c #353D28",
"o  c #472D33",
"O  c #4B2E34",
"+  c #433632",
"@  c #463B34",
"#  c #4A3B36",
"$  c #463638",
"%  c #4E3D3E",
"&  c #503D38",
"*  c #354324",
"=  c #3C4D26",
"-  c #45462C",
";  c #405027",
":  c #475E27",
">  c #494630",
",  c #4D4C33",
"<  c #4E443D",
"1  c #534F32",
"2  c #52453E",
"3  c #4F5633",
"4  c #4E5936",
"5  c #515235",
"6  c #505B36",
"7  c #535339",
"8  c #476126",
"9  c #4B6327",
"0  c #4C6428",
"q  c #4F682A",
"w  c #536C2A",
"e  c #586F2A",
"r  c #56732B",
"t  c #5A762B",
"y  c #5D7B2D",
"u  c #5E7D30",
"i  c #617E2E",
"p  c #617E30",
"a  c #687B34",
"s  c #41384A",
"d  c #5C3E43",
"f  c #683C45",
"g  c #4E4142",
"h  c #544050",
"j  c #6D414A",
"k  c #7F4B54",
"l  c #7C5A5B",
"z  c #4D4965",
"x  c #4B556F",
"c  c #746363",
"v  c #7B6474",
"b  c #865A4D",
"n  c #884A56",
"m  c #8E5C51",
"M  c #80565B",
"N  c #8A535A",
"B  c #825F5D",
"V  c #9D5660",
"C  c #AE5768",
"Z  c #B55B6C",
"A  c #BB5C6E",
"S  c #806E69",
"D  c #906468",
"F  c #956B6A",
"G  c #9F6D71",
"H  c #957D79",
"J  c #A46269",
"K  c #A46D76",
"L  c #BF6272",
"P  c #B66A76",
"I  c #A57173",
"U  c #A87576",
"Y  c #B3747F",
"T  c #C56475",
"R  c #CC6C7B",
"E  c #CD707E",
"W  c #5F802D",
"Q  c #5F8030",
"!  c #63822F",
"~  c #68882F",
"^  c #638131",
"/  c #648030",
"(  c #638431",
")  c #658431",
"_  c #658534",
"`  c #688632",
"'  c #698334",
"]  c #698734",
"[  c #638832",
"{  c #678832",
"}  c #678C32",
"|  c #6A8833",
" . c #688B34",
".. c #916D87",
"X. c #987F93",
"o. c #B47B85",
"O. c #BA7A80",
"+. c #D27985",
"@. c #AC8687",
"#. c #BF8488",
"$. c #B4ABB6",
"%. c #CA858B",
"&. c #CA868D",
"*. c #D6838D",
"=. c #D9808C",
"-. c #D8848E",
";. c #DE9499",
":. c #E08691",
">. c #E08892",
",. c #E1939B",
"<. c #EA949C",
"1. c #E29A9F",
"2. c #E098A0",
"3. c #EB9BA1",
"4. c #DCA2A5",
"5. c #EEA9AF",
"6. c #F5A1A7",
"7. c #F8A3A9",
"8. c #F6ACAF",
"9. c #E5B7B7",
"0. c #E3BFBD",
"q. c #EDBDBD",
"w. c #F8B2B6",
"e. c #FAB7B9",
"r. c #FBB8BA",
/* pixels */
"i ) ! ! ) ! ) ! ^ p p p / ) ) i y ! / ] ) ) / _ p u u y y ! / | ",
"/ ) ) ) ) / ] | ` ` ` ) ! ) ) / ! ! ) { ) ! y y ^ ^ ^ u y p p ) ",
"/ / ) | ) / ) ( i / / / ` | ` p t y ) / ! y y i y y ! ! y i y u ",
"^ ) ) ) ` ) ^ { ) ) ) / ) ~ | i t p ) / / ) | | ^ y y y y / / ^ ",
"( ! i ) | ! / | ^ y ) ( y y y y y ) ) ) p / / / p i i t i ^ ! i ",
"/ ^ i ) p ! ! | ! i ^ y y y ! ^ ! ) ) i t u ^ / u t t y ^ ! p i ",
"` ) / ^ ! y ! ) ! ^  .) ^ y y ^ ) ^ ! ! p u ^ ! y y ! / ! y i i ",
"! y ^ ) ) y y ! ( ) } ) ! e ; = = = = = w / y y y y ^ ! ! / y t ",
"^ [ { ! ^ ! ! i ! y ! / t 3 B D l . O   0 i t y y y ^ ! ! i i y ",
"! | ) ! / / y y p p y w * + P =.%.$ o   w ! ! i i t y ! i i y y ",
") ] | ) ) ) / ^ ^ ! w 5 l M f k O.g c S 6 t ! i y y ! ! i i y u ",
"i /  .{ ^ ) ! i i w 3 F 3.;.l % #.@.9.q.H 4 r ( ( y r y i y t t ",
") ) _ u i y y / ` 9 2 ;.7.7.;.I 1.w.e.r.4.< 0 / ) y t t i y t t ",
") | ) i ! ! y ^ / 9 2 ;.7.7.7.6.7.7.7.7.;.< 9 y ^ y t y y i y t ",
"! ) / ! ! ) y y ^ 9 2 ;.7.7.7.7.3.Y K Y &.< 9 i i i y y y i ^ ^ ",
"i i y ! y t r t y 8 2 ;.7.7.7.7.2.v s h o.< 0 ! y y t y y ! W ^ ",
"^ u p i t t y ^ i 9 2 ;.7.7.7.7.5.$.x z o.2 0 ( y t t y ! y t t ",
"p i ! y t y y i i w , U 3.7.7.7.8.0.X...Y # q i i y y t y t y y ",
"i / / i y i i i ! ! w 7 I <.6.7.7.7.6.,.N - w y y y y y y y y y ",
"! ^ ^ ^ i i y ! ! ! ! q & E >.O.*.:.-.I 5 w t t t y y i i y y y ",
"i ) ! i i y y W y i i 9 # R +.M n A C @ 0 t y y y y y t y y y t ",
"! ! y t ! i u y y y y w > J <.%.d L T + 0 y y W ! ! y t y y y t ",
"! i ! y y p ^ y y i p y : @ G G j Z V > r ^ y y ! ! y t y y y y ",
"y y W t t i i y i i i y q * X > b m 1 t y i y i y y y y t t y W ",
"y y ( y y y y y i y t y i t r y a ' i W y y y ! i y i y y t t y ",
"/ ) ! y ! t t t t t y i ! i i i ^ ) W y u ^ y y t y i i i y y y ",
"/ ^ y y y ^ i t y i y i t t y y ^ t t y ^ ^ y i y y i i i t i i ",
") ( y y y ! y t y ! i i r r y y i y y ^ y i y y y y t t y y Q u ",
") ) ( / i t y y t i ! ^ y t y i i i i i i y y y y y y t y y y y ",
"! i y y y ^ p y y i y y y i y y i i y y y i y t t y t i ! t t y ",
"i y y ! y i y y y y y i i / i y y y ! i y i y y t t t y ! i y i ",
"t ! ! y y i i y y i i i y i i r t i y t t y y y y y y y y t t t "
};
