/* XPM */
static char *_9565d96e9754de2c91835953671ebe8zDHFbO2adl36M9dX[] = {
/* columns rows colors chars-per-pixel */
"32 32 207 2 ",
"   c #020203",
".  c #04020B",
"X  c #0A040E",
"o  c #090318",
"O  c #11051F",
"+  c #130D1A",
"@  c #1C1313",
"#  c #201718",
"$  c #090324",
"%  c #0B042D",
"&  c #0E0537",
"*  c #170732",
"=  c #190733",
"-  c #10063C",
";  c #361C25",
":  c #210A3A",
">  c #362429",
",  c #42272B",
"<  c #573539",
"1  c #3D4422",
"2  c #495527",
"3  c #4B5A27",
"4  c #4C532B",
"5  c #515F2A",
"6  c #514533",
"7  c #5B4C39",
"8  c #495234",
"9  c #665C3D",
"0  c #4C6424",
"q  c #4E6128",
"w  c #526B26",
"e  c #52622A",
"r  c #546B29",
"t  c #596E2D",
"y  c #537027",
"u  c #56732B",
"i  c #5A762B",
"p  c #5D7B2D",
"a  c #5B6D36",
"s  c #566738",
"d  c #5C7532",
"f  c #5E7B32",
"g  c #5E743D",
"h  c #617E2E",
"j  c #626E33",
"k  c #646B3A",
"l  c #617231",
"z  c #617E31",
"x  c #60753C",
"c  c #6C723C",
"v  c #627C3C",
"b  c #120644",
"n  c #1C0844",
"m  c #16084E",
"M  c #160853",
"N  c #190857",
"B  c #1B095B",
"V  c #240A57",
"C  c #290C54",
"Z  c #2E1755",
"A  c #1B0868",
"S  c #1D0A6C",
"D  c #1F0B72",
"F  c #230B6B",
"G  c #2C0C6A",
"H  c #381665",
"J  c #230A75",
"K  c #2B0C75",
"L  c #230B7D",
"P  c #2B0E7A",
"I  c #5A3A4B",
"U  c #502D61",
"Y  c #493D6B",
"T  c #5D4446",
"R  c #595E5D",
"E  c #604B4C",
"W  c #70544D",
"Q  c #576644",
"!  c #5C6E43",
"~  c #5D664B",
"^  c #5B6B4D",
"/  c #5E7043",
"(  c #5D6A56",
")  c #656144",
"_  c #78694A",
"`  c #627545",
"'  c #667843",
"]  c #626D53",
"[  c #626659",
"{  c #726251",
"}  c #657254",
"|  c #4F4E6D",
" . c #525664",
".. c #5B5A6A",
"X. c #49437F",
"o. c #554778",
"O. c #574C7D",
"+. c #5E5A71",
"@. c #714762",
"#. c #65557C",
"$. c #64597B",
"%. c #705172",
"&. c #7B5072",
"*. c #5F6064",
"=. c #66646E",
"-. c #8B5C5F",
";. c #856856",
":. c #846D54",
">. c #886C57",
",. c #8C6B5B",
"<. c #906A5F",
"1. c #935D63",
"2. c #866764",
"3. c #966668",
"4. c #947665",
"5. c #9F6D70",
"6. c #9D7475",
"7. c #A36D6F",
"8. c #A27E69",
"9. c #A36C70",
"0. c #AA7875",
"q. c #B47B7A",
"w. c #B67A7D",
"e. c #5F802D",
"r. c #5F8030",
"t. c #63822E",
"y. c #68882F",
"u. c #648331",
"i. c #688733",
"p. c #6A8A32",
"a. c #658239",
"s. c #698539",
"d. c #678045",
"f. c #788041",
"g. c #AB8E7B",
"h. c #B18774",
"j. c #BB847D",
"k. c #250B83",
"l. c #290B84",
"z. c #270C8C",
"x. c #2B0C8B",
"c. c #330E89",
"v. c #2D1488",
"b. c #381489",
"n. c #2C0C92",
"m. c #2E0F99",
"M. c #350D93",
"N. c #320B9C",
"B. c #34149B",
"V. c #381A98",
"C. c #3E2885",
"Z. c #3A2298",
"A. c #350DA4",
"S. c #390CA6",
"D. c #3B12A6",
"F. c #3C17A8",
"G. c #3D0DB6",
"H. c #3F12B4",
"J. c #3F20A4",
"K. c #4D3E8A",
"L. c #45289D",
"P. c #453295",
"I. c #4A319B",
"U. c #573E94",
"Y. c #553B9A",
"T. c #4219AC",
"R. c #4918AE",
"E. c #4B15BD",
"W. c #4B1DB8",
"Q. c #4526A8",
"!. c #5536AA",
"~. c #5428BA",
"^. c #5A33B5",
"/. c #4F4387",
"(. c #584987",
"). c #5B4C84",
"_. c #51438B",
"`. c #594294",
"'. c #6A5589",
"]. c #5418C8",
"[. c #5826C3",
"{. c #622AC3",
"}. c #B57781",
"|. c #C27F86",
" X c #C78787",
".X c #CC858C",
"XX c #CC8B8A",
"oX c #D18D8F",
"OX c #D4938E",
"+X c #D78D92",
"@X c #DA9698",
"#X c #EB969D",
"$X c #E6989D",
"%X c #E59FA2",
"&X c #ED9CA1",
"*X c #F19EA5",
"=X c #E5A6AA",
"-X c #EFA5AB",
";X c #F5A0A6",
":X c #F6A3A9",
">X c #F9A4AA",
",X c #F4A9AE",
"<X c #F2ACB1",
"1X c #FAABB0",
"2X c #EEB2B6",
"3X c #F3B1B6",
"4X c #F1B2B8",
/* pixels */
"h u.r 7 7 9 l t.'.'.z h u.u.u.h p t.u.i.u.u.] ~ e u f p p t.u.p.",
"h t 4.@X&X$Xj.f.' '.' u.t.t.u.u.t.t.u.i.u.z a 4.j.>.d p p z z u.",
"r >.,X,X<X,X:Xj.l ] ] u.i.p.u.z i p u.u.t.s 6.3X>X-X:.i p h p f ",
"2 XX>X,X,X>X:X&X_ u.} a.i.y.p.p p z u.u.u.s oX>X>X3Xq.0 p u.z u.",
"1 OX>X<X:X:X:X*X) p v ' p p e.t.p t.u.u.u.i 0.<X<X;X,.y t.u.t.h ",
"3  X>X:X:X:X:X&X_ p v g p g ^ ( ( ] ` z p p k 0. X<.r p u.t.z h ",
"p _ &X>X:X:X:Xh.z u.s.( (.I.J.V.V.Q.I.O.^ f z i e w t.u.t.p h h ",
"t.u _ XX+XoX8.s.p 0 8 C.E.G.n.z.z.n.m.F.I.^ p p p h u.t.t.u.p p ",
"t.i.f e 4 4 i 0 6 3.5.@.H S.A.N.J D k.n.B.K.s p p p u.t.t.h h p ",
"t.d.$.g t.t.q 2.@X:X>X&X|.U k.n.L S S L z.F.`.! h i p t.x +.g p ",
"u.s.=.} } r W =X,X,X<X;X>X.XZ K N b b S L A.].O.p p v ` ( ..g f ",
"h u.p.s.^ 4 w.:X;X,X<X;X:X;X@.V n o o b S n.H.!.v f Q d z p p p ",
"u.u.i.p u 6 &X,X2X:X:X:X;X>Xw.O G = . $ m L D.{.[ p i i h p i i ",
"u.p.u.h p 6 $X>X,X:X:X:X;X>X0.  : O . . & J A.].).p p p p h p p ",
"t.u.u.t.h 3 7.>X:X:X:X:X:X&X<   o X . . % S A.].`.i e 5 r p u.u.",
"h h p t.p 0 7 +X>X:X:X:X:X9.# T T T + $ - J R.E.U._ w. X;.t e.u.",
"u.f z h p p r E q.&X:X+X-.@   5.1X0.+ o b c.].E.&.=X,X,X*X>.w p ",
"z h t.p i p f Y Z I I > X X   1.#X1.X o m M.G.V.}.>X>X<X>XXX3 p ",
"h u.u.h p p h _.V.A b % : O   , < ; * C J M.A.b.}.,X<X:X:XXX2 p ",
"t.u.u.u.e.h f ..Z.l.c.B C % .     . C G F c.S.L.&.&X>X>X:X,.w i ",
"h t.u.x g g ! ^ P.v.M.F V n . . .   * C K n.D.P.~ ;. X.X2.e p i ",
"t.a.#.).~ ) k a X.Z.A.J K G $ . o $ % b F x.V./.z p e 8 Y #.d p ",
"t.x '.[ g.%X$X8.o.Q.F.x.l.P b $ - - b A L M.Q. .t.t.p p x $.g p ",
"p p p _ -X,X<X=X%./.~.T.n.n.J B M N l.n.B.L. .f h p p p i i p e.",
"p p p :.:X>X>X-X{ a (.[.R.D.m.k.l.l.N.F.Q. .i t.h p h p p i i p ",
"u.u.h c OX4X>XXXj p / ^.[.[.W.F.D.T.Q.Q.!.^ p p i p h h h p p p ",
"u.u.p p ' 4.,.k p h g ..R O.Y.U._.K.| R ^.+.p h p p h h h p h h ",
"u.u.p p p p w i p z *.g i t d f z d p z ( x p p p p i i p p r.f ",
"u.u.u.u.h i p p p ` ).v p i p h h h h h h p p p p p p i p p p p ",
"t.h p p p u.z p p x ! p p h p g z h p p p h p i i p i h z ^ d p ",
"h p p t.p h p p p p p h h u.h ! d p t.h p h p p p i i p h z p h ",
"i t.t.p p h h p p h h h p h h i i h p i i p p p p p p p p i i p "
};
