/* XPM */
static char *b065a5d07e3c4fb5f90b0c68015899d3av03suqwaVm8LZBT[] = {
/* columns rows colors chars-per-pixel */
"32 32 236 2 ",
"   c #111E31",
".  c #351431",
"X  c #7D232D",
"o  c #78571B",
"O  c #735134",
"+  c #341752",
"@  c #003859",
"#  c #3C2144",
"$  c #301563",
"%  c #46005A",
"&  c #503654",
"*  c #583261",
"=  c #195777",
"-  c #2F527B",
";  c #705154",
":  c #49416D",
">  c #5D5170",
",  c #6A4663",
"<  c #715769",
"1  c #58677A",
"2  c #4D617A",
"3  c #666678",
"4  c #7D607F",
"5  c #864B16",
"6  c #805417",
"7  c #936607",
"8  c #9B7712",
"9  c #A7761C",
"0  c #8F5633",
"q  c #886527",
"w  c #967227",
"e  c #99683F",
"r  c #A3782C",
"t  c #8C5850",
"y  c #806345",
"u  c #82466C",
"i  c #825C76",
"p  c #876C7A",
"a  c #93727D",
"s  c #978214",
"d  c #A78501",
"f  c #BEA50D",
"g  c #BF9F24",
"h  c #CA981D",
"j  c #D7A500",
"k  c #CCA61C",
"l  c #D5AD14",
"z  c #D5B218",
"x  c #E9BE07",
"c  c #E8BA1B",
"v  c #E7AC10",
"b  c #CF9E28",
"n  c #D5A235",
"m  c #F9BA3B",
"M  c #F1B027",
"N  c #D9C214",
"B  c #F3C407",
"V  c #F9D309",
"C  c #E8C319",
"Z  c #F9C618",
"A  c #ECC705",
"S  c #FDE216",
"D  c #FFCC23",
"F  c #FFCC2F",
"G  c #F9C935",
"H  c #FDD439",
"J  c #FDD93E",
"K  c #F8D335",
"L  c #EAD02A",
"P  c #FFE031",
"I  c #BB8F4E",
"U  c #D1B24E",
"Y  c #E9B14E",
"T  c #F2B177",
"R  c #FAC545",
"E  c #FDD846",
"W  c #FFC857",
"Q  c #FFD654",
"!  c #E1C258",
"~  c #FFF454",
"^  c #FBF24C",
"/  c #DDD87C",
"(  c #FFD776",
")  c #EDCE6A",
"_  c #FAE465",
"`  c #FCF87E",
"'  c #243E88",
"]  c #264C88",
"[  c #087E9D",
"{  c #38688B",
"}  c #327092",
"|  c #57738B",
" . c #457393",
".. c #727C8D",
"X. c #6F7390",
"o. c #8B5684",
"O. c #97759A",
"+. c #966C8D",
"@. c #A06C83",
"#. c #9B75A7",
"$. c #8F6AA5",
"%. c #A974A8",
"&. c #1685BD",
"*. c #00B1BF",
"=. c #2DADB6",
"-. c #54999E",
";. c #4086A0",
":. c #6D84A4",
">. c #1A96C6",
",. c #009AC3",
"<. c #3A9ED9",
"1. c #2BA8D1",
"2. c #25BFF1",
"3. c #03B2CF",
"4. c #4799C9",
"5. c #59BDDA",
"6. c #57AEC9",
"7. c #6DACC8",
"8. c #4BADEA",
"9. c #2FC1D0",
"0. c #00E0DC",
"q. c #1CCBE6",
"w. c #37CAE5",
"e. c #3CD9F1",
"r. c #16E0EA",
"t. c #31EBF3",
"y. c #51D2DA",
"u. c #7CD5DB",
"i. c #4EDAEA",
"p. c #7BDEE8",
"a. c #72CFF4",
"s. c #4CE5F8",
"d. c #45F5FF",
"f. c #57F3F3",
"g. c #7DEAEB",
"h. c #68E7FC",
"j. c #74F2FB",
"k. c #9A8E8A",
"l. c #848695",
"z. c #958F95",
"x. c #A7989D",
"c. c #A49487",
"v. c #8B91B2",
"b. c #B190B0",
"n. c #94A5B5",
"m. c #B9A7AB",
"M. c #BAAAB7",
"N. c #A9AABC",
"B. c #C3ADBC",
"V. c #C6BCB6",
"C. c #DFCB82",
"Z. c #FDEF98",
"A. c #FDEDAE",
"S. c #B5B4CF",
"D. c #AD91C2",
"F. c #D5AECB",
"G. c #C4BDC6",
"H. c #CDB7D0",
"J. c #D0A9E3",
"K. c #E9BDE0",
"L. c #89D9EC",
"P. c #98DAEA",
"I. c #98D9F5",
"U. c #8CCEEA",
"Y. c #A3D8F8",
"T. c #B2DDFC",
"R. c #B0CFFE",
"E. c #8BE7F9",
"W. c #9AECFF",
"Q. c #94E2F3",
"!. c #88F5FB",
"~. c #95F6FE",
"^. c #8AECEF",
"/. c #A3EBFD",
"(. c #B9E8FB",
"). c #A8F5FD",
"_. c #9EC6CE",
"`. c #CCC3C6",
"'. c #D2C9C2",
"]. c #DBD5D8",
"[. c #D5CFD2",
"{. c #E4D6D9",
"}. c #EBD8D4",
"|. c #DAE7DC",
" X c #DCF0D1",
".X c #E9FACF",
"XX c #FBFACB",
"oX c #E8E8DA",
"OX c #F2FBDA",
"+X c #F0F2CF",
"@X c #DEDCE8",
"#X c #DECBFB",
"$X c #D3D3F1",
"%X c #E4CEE3",
"&X c #E3DAE1",
"*X c #F0DDEE",
"=X c #D8EFE4",
"-X c #D7E9FE",
";X c #DBFEFA",
":X c #C9F0F0",
">X c #E6E5E3",
",X c #ECE5EB",
"<X c #ECEDEC",
"1X c #E9EBE6",
"2X c #F4E5EB",
"3X c #FCE6ED",
"4X c #F3ECEC",
"5X c #F5EEE6",
"6X c #ECF2ED",
"7X c #E8F6E7",
"8X c #F2F2EE",
"9X c #FDF4EB",
"0X c #F4FEED",
"qX c #FEFBED",
"wX c #FAF7E4",
"eX c #ECECF1",
"rX c #ECE9F9",
"tX c #F4E5F4",
"yX c #F6ECF4",
"uX c #FDEBF3",
"iX c #FAE7FD",
"pX c #FEECFD",
"aX c #F9E7F5",
"sX c #ECF2F2",
"dX c #EDFBF4",
"fX c #EEF4FA",
"gX c #ECFCFC",
"hX c #E4F9F5",
"jX c #F3F3F4",
"kX c #FCF3F5",
"lX c #F2FDF5",
"zX c #FCFCF4",
"xX c #F3F5FB",
"cX c #FEF4FD",
"vX c #F4FDFC",
"bX c #FCFCFD",
/* pixels */
"4XzXjXjXzX8XkXbXbX1XxXxXjXzX<XzXyXzX}.0XhXyXpXkX|.lXhXxXcXbX2X5X",
"8XkXjXxXxXjX4X8XbXjXxXjXjXbXjXjXvX4XzXlXhXpXuX;XcX3XkXbXeXsXvXgX",
"bXxXjXjXzXxXjXxXjXjXxX<XzXbXjXxXhXxXbXgXkXbXvX:X>X,XxXjXjXxXjX4X",
"xXeXjXjXjXxXxXxXjXxXxXjXbXxXjXxXlX2XcXfXjX6X6XzXbXbXbXjXbXzXuXcX",
"xXsXbXzXkXbXvXsXxXxXxXbXxX<XjXbXkXB.cXcX7X0X9XpX$Xb.B.bXbX=XgXvX",
"bXjXbX}.'.4XxXxXxXjX<XxXjXjXbXbX<   > %XdX XcXK.} | 3 &XbX7XsXjX",
"xX<X5Xm.k.'.<XjXjXjXjXxX<XxXbX].+ 5.7.O.7XzXK.= 9.E.| G.bXbXcXcX",
"jX8XzXV.c.{.zXbXbXbXbXbXjXxXjXx.$ s.!.* &XuX: w.h.W.| %XcXsXvXsX",
"aX0XgXbXM.bX1Xm.a +.+.b.xXlXvX$.' e.).-.#.$.1.d.:X:X3 yXcXjXbXjX",
"qX>XbXoXqXJ.i s U ! L s ; m.wXu ] t.Q.P.:  .s.a.;Xn.l.bX,XbXjXbX",
"7XbX5XbXS.e Y A.XX+XcXzX/ O b.u ] f.L.Q.7.=.i.-XgX1 S.bX,XbX6XbX",
"0XeXqX#X< c ` 9XA.` Z.}.XX_ q % } i.Y.W.Q.y.^.fXS.1 fXcXxX6XjXzX",
"9X6XbX+.f ~ zXC.G B V ( Z.H m X [ h.Y.~.U.Q.(.;XX.N.bXyXbX6XzXkX",
"tXbX@X6 V ) cX~ F T t O g G ( 5 [ !.Y.g.Y.T.-X_.3 cXpXkX6XlXjXkX",
"bX,Xm.7 D ( ) L J , `.oX& ) L O >.a./.^.I./.-X1 M.bXyXbX1XbXjXcX",
"=XqX%.r S M R S z a cXkXF.7 ~ 0 &.j.E.g.L.~.:.$.bXkXkXjXdXlXbXcX",
"fXbX@.d H M S E Y o.iXXX`.y Q e 1.d.P.Q.E.I.& kXjXdXhXsXcXcX2XvX",
"7XbXO.d Z _ c G V w b.pX, U ^ 5 ,.5.U.j.T.I.-.@.cXbXvXbX].[.cXbX",
"OXbXD.8 A m W G P K e O I H L t >.i.(.p.L.W.(.l.k.cXbX@Xx.k.bX<X",
"OXbX#Xq A j Q F R H Q J J E E y <.w.I.g.Q.I.P.:Xp M.cXbXl.[.bX8X",
"jX1XbX; k V v D E K c D R E C O >.w.I.^.~.!.L./.-X> rXbX4X8XbX8X",
"xX6XbXG.o C Z B c c R m W c N , 3.e.R.P.u.y.~.L.(.S.X.cXbXjX1XbX",
"wXxX6XbXp 8 R x b l h h c k w $ q.1.a.!.l. .y.a.5.;X..x.bX>XxXbX",
"XXfXdXbXpX0 9 C n l U l j 0 , # 4.r.h.Q.> #.{ *.y.U.-X> {.bXbX<X",
"jX<XbXkXkX3Xx.< 7 9 r o O m.%X+ t.0.j.X.l.vXF.4 { 4.j.6.n.cXaXvX",
"bXjXxX].x.M.2X2XJ.#.O.M.%XpX%X. 2.t.y.* tX1XbXjXv.- ;.{ ..cXbX|.",
"<XjXxXxXG.G.bXbXfXxXbXbXbXcX%X& 8.e.@ b.cXzXqX7XcXrXn...[.bXoXbX",
"jXbXjXxXbXjXjX6XOX.X.X X7XbX*X, - = 2 pXuX0X5XlXzX3XcXbXlXdXbX,X",
"bXxXxXjXbXbX<XbXsXeXbXbXsXsXbX*X4 z.fXcXdXgXyXbX1XbXaX,XlX7XjXcX",
"xX>XbXbX1XxXjXxXcXiXcXcXxXeXxXkXuXzXbXsXhXvXtX*X7XbXcXbXbXlXbXiX",
"bXjXxXjX<XjXzXjXwX5XzX1XlXlXbX4XbX}.4XjXxXeXbXbXjXsXfXxX>X5XbXxX",
"1XbX8X4XbXzXkXkXhXsXbXsXdX7X0XqX;XbX2XbX3XzX1XdXkXkXfXbXqX9XzX7X"
};
