/* XPM */
static char *result[] = {
/* columns rows colors chars-per-pixel */
"32 32 99 2 ",
"   c #302A27",
".  c #342B29",
"X  c #323F23",
"o  c #3C3333",
"O  c #3E3833",
"+  c #442C32",
"@  c #4A2D34",
"#  c #364325",
"$  c #3A4926",
"%  c #394328",
"&  c #3E4C2A",
"*  c #465A26",
"=  c #495E29",
"-  c #4D4B34",
";  c #524A34",
":  c #4E503C",
">  c #505237",
",  c #56583A",
"<  c #4E6627",
"1  c #4B632A",
"2  c #536C2B",
"3  c #56722C",
"4  c #5A762B",
"5  c #5D7B2D",
"6  c #5E7D30",
"7  c #617E2E",
"8  c #646735",
"9  c #617E30",
"0  c #313750",
"q  c #553D4B",
"w  c #5D4A47",
"e  c #574A4B",
"r  c #565A40",
"t  c #6D4749",
"y  c #634857",
"u  c #7B4650",
"i  c #794950",
"p  c #7E5559",
"a  c #585576",
"s  c #7F6072",
"d  c #844753",
"f  c #854B55",
"g  c #8E4E56",
"h  c #89545D",
"j  c #99505A",
"k  c #865E62",
"l  c #885E62",
"z  c #935560",
"x  c #906766",
"c  c #94676B",
"v  c #936869",
"b  c #9F696F",
"n  c #966570",
"m  c #9D6D71",
"M  c #9F7170",
"N  c #9A7B7A",
"B  c #A3646D",
"V  c #A16E73",
"C  c #BB6373",
"Z  c #A57476",
"A  c #A57679",
"S  c #C76879",
"D  c #D56A7D",
"F  c #5F802D",
"G  c #5F8030",
"H  c #63812F",
"J  c #68882F",
"K  c #648331",
"L  c #698733",
"P  c #668832",
"I  c #698932",
"U  c #6E7085",
"Y  c #926D85",
"T  c #B57B86",
"R  c #C57C8A",
"E  c #E47A8A",
"W  c #AE8F8D",
"Q  c #A7A2AC",
"!  c #D3828C",
"~  c #D48A91",
"^  c #DC8C94",
"/  c #D4929F",
"(  c #E2828F",
")  c #ED8D98",
"_  c #E5969D",
"`  c #E8979E",
"'  c #E9989E",
"]  c #EC9AA1",
"[  c #F59FA6",
"{  c #CDA1AC",
"}  c #E7A6AB",
"|  c #F7A2A8",
" . c #F8A3A9",
".. c #F7ACAF",
"X. c #F9A8AE",
"o. c #E3B6B6",
"O. c #EFB6B8",
"+. c #F3BABC",
"@. c #FCC1C2",
/* pixels */
"7 L K J P H L J K 9 9 9 L L L 7 5 7 L L K K K L 6 6 6 5 F K K P ",
"H K P K K K L K L L L L H 7 L 9 K H L K I H 6 K 9 6 K 5 5 K 9 K ",
"K K L I K K K K 7 K K K L L J 9 3 5 J H H 5 5 6 5 6 K 5 7 9 6 9 ",
"K K K K I K K I K K P K L J J 7 6 9 K K K K I L K 5 5 5 4 K 9 9 ",
"K K K K I H L L K 5 P K 5 5 5 5 5 K K K K K K K 7 7 7 4 7 K H 5 ",
"K K 5 K K 7 H J H F K 5 5 5 K K K K K H 5 6 9 K 7 4 4 7 K 9 9 7 ",
"K K K K H 7 7 J H G P K G 5 9 K P P K K 6 6 6 K 7 4 H H J 7 7 7 ",
"K 5 5 K J 5 5 H K P P 3 1 * = = 1 4 K 5 5 K 5 5 4 7 K H H K 5 4 ",
"K P P F K H H 7 7 5 H $ .   O w w , 2 5 5 7 5 5 7 7 7 H J 7 7 5 ",
"F P K G K K 7 7 7 9 5 X @ + k ^ ! p # 2 7 F F 7 7 4 7 H 7 7 6 7 ",
"L L I L K K K K 9 6 < : e o l T g t @ , 2 H K 5 4 5 H H 9 9 7 6 ",
"9 K I P K K 7 7 7 2 r W o.N A k o c _ Z > 2 5 K H 5 4 5 7 5 5 3 ",
"K L L 6 6 6 5 K 9 & N +.@.O.} m c ] [ ] v $ 5 K K 7 4 4 7 5 4 4 ",
"K I K 5 K F 5 K 9 % Z X.X.X.| ] ] [ |  .m # 3 6 7 7 4 5 5 7 5 4 ",
"K K K H H H 5 5 4 % V _ ~ ~ ] | | | | | b # 4 7 7 7 5 5 5 5 F K ",
"H 7 9 H 5 4 3 5 4 % m n q y T [ | | | | m # 4 H H 5 5 5 F F F G ",
"K 6 9 7 4 5 5 H 5 # b s 0 U { | | | | | b # 5 H F 5 4 F F 5 F 4 ",
"6 5 K 5 4 5 5 7 4 % v Y a Q @.| | | | ] x & F 5 5 5 5 5 4 5 5 5 ",
"7 K K 7 5 F H H 5 $ i R / } ..| X. .` M > 4 5 5 5 5 4 4 5 5 5 F ",
"7 K K 5 H 7 5 H J 3 - b _ ] ] _ ' ) z - < 5 5 4 4 F F H 5 5 4 4 ",
"7 K H 7 7 5 5 F 5 H 2 - j S C h B E f # 5 5 5 5 5 5 5 4 5 4 7 4 ",
"K J 5 4 H 5 5 5 5 5 3 # d D f p ~ ( f $ 4 5 5 F H H 5 4 5 5 7 4 ",
"H 5 H 5 F K K 5 5 9 6 $ g D u h ` b - 3 F K 5 5 H F 5 5 4 5 5 5 ",
"F 5 F 5 3 6 5 7 7 7 6 2 ; g j u w o $ J F 5 5 H 5 5 5 5 3 5 5 7 ",
"F F K 5 5 5 3 7 7 7 4 4 2 8 8 8 = 1 3 F 5 F 5 H 7 5 7 7 4 4 4 4 ",
"7 J 7 5 K 5 5 4 4 4 7 7 7 7 7 7 K J F F F H 4 5 4 5 7 7 7 4 7 7 ",
"K 9 5 6 5 H 5 5 4 7 7 7 7 7 4 4 6 3 5 5 F H F 7 4 5 7 7 7 4 7 7 ",
"K J 6 5 5 H 5 4 7 7 7 7 2 3 7 7 7 5 5 K 5 F 5 4 5 5 4 3 5 5 7 7 ",
"K K K 9 7 4 5 7 4 7 H 7 7 4 4 7 7 7 7 7 H 5 5 5 5 5 5 4 5 5 5 5 ",
"K 7 5 5 7 H 9 5 4 7 7 7 7 7 7 5 7 7 7 7 5 5 5 4 4 5 4 H 7 4 4 5 ",
"7 5 5 K 5 7 9 4 4 7 7 7 7 7 7 7 5 5 7 7 5 H 5 5 4 4 4 5 H F 5 H ",
"4 H K 5 5 9 7 6 7 7 7 7 7 7 7 4 4 7 5 4 3 F F 5 F 5 5 5 5 4 4 4 "
};
