/* XPM */
static char *result[] = {
/* columns rows colors chars-per-pixel */
"32 32 111 2 ",
"   c #332A29",
".  c #2F3D22",
"X  c #313E23",
"o  c #3A2F31",
"O  c #432C32",
"+  c #502E38",
"@  c #4C3737",
"#  c #4B3B3C",
"$  c #543B3C",
"%  c #334324",
"&  c #3C4F24",
"*  c #374428",
"=  c #394529",
"-  c #3C4A29",
";  c #3E5225",
":  c #494E2E",
">  c #415526",
",  c #435926",
"<  c #4A562E",
"1  c #4A5D2B",
"2  c #52592F",
"3  c #525337",
"4  c #535A36",
"5  c #57563B",
"6  c #496229",
"7  c #526B2B",
"8  c #56732B",
"9  c #5A762B",
"0  c #5D7B2D",
"q  c #5E7D30",
"w  c #617E2E",
"e  c #617E30",
"r  c #3B3C56",
"t  c #4C3B4B",
"y  c #513B4A",
"u  c #663A43",
"i  c #514243",
"p  c #5A4645",
"a  c #5B4A45",
"s  c #575A41",
"d  c #6C4E4F",
"f  c #704C4E",
"g  c #79484D",
"h  c #67544B",
"j  c #7E4A53",
"k  c #6E5352",
"l  c #6D5C5B",
"z  c #715353",
"x  c #785D55",
"c  c #7E555A",
"v  c #796642",
"b  c #4C546C",
"n  c #7F5F6D",
"m  c #655879",
"M  c #825E5F",
"N  c #A65563",
"B  c #BA5C6D",
"V  c #8A6164",
"C  c #916768",
"Z  c #86716F",
"A  c #9E6C71",
"S  c #B1616E",
"D  c #BD6473",
"F  c #B36A77",
"G  c #BB6B78",
"H  c #A37273",
"J  c #C46274",
"K  c #CA697A",
"L  c #D7697D",
"P  c #C7727E",
"I  c #5F802E",
"U  c #5F8030",
"Y  c #63822F",
"T  c #68882F",
"R  c #648331",
"E  c #698733",
"W  c #668832",
"Q  c #698A32",
"!  c #7F798F",
"~  c #AA7885",
"^  c #B17781",
"/  c #BE7D84",
"(  c #B27A8B",
")  c #C27A82",
"_  c #D67282",
"`  c #E37285",
"'  c #A68987",
"]  c #BF8387",
"[  c #AC9EAC",
"{  c #C38088",
"}  c #C9848C",
"|  c #D0888E",
" . c #D68F94",
".. c #DA9096",
"X. c #DE969B",
"o. c #E28C95",
"O. c #E3979E",
"+. c #EB989F",
"@. c #E09CA5",
"#. c #EE9CA2",
"$. c #F19EA4",
"%. c #DAAFAF",
"&. c #ECA4AB",
"*. c #F6A2A8",
"=. c #F8A4AA",
"-. c #F5ACAF",
";. c #EEB1B3",
":. c #F7B3B5",
">. c #FABABC",
",. c #DEC7C4",
"<. c #F4C2C2",
/* pixels */
"w E R E T Y E T R e e e e E E w w Y R E E R R R q q q U 0 Y R Q ",
"Y R R W R R E E E E E E w E R e Y R R E R R 0 R e R U q 0 R R R ",
"R R W Q R R R R w R R R E E T e 9 9 T R Y 0 w 0 q 0 e 0 w e 0 q ",
"R R R R Q R R W R R W R E T T w q e R R R R Q E R 0 0 0 0 R e e ",
"R R Y R Q Y E E R 0 R W 0 0 I U 0 R R R R R R R w w w 9 e R Y w ",
"R R 0 R Y w Y T Y q R 0 9 8 0 9 0 U R 0 9 q R R w 9 9 w e w e 0 ",
"R R R R Y 0 w T R U Q 7 % X . * = - 8 R U q e e w 0 Y Y T w e w ",
"R 0 q R T w 0 Y W W Q 6   + o V A C 3 7 q e q 0 9 0 Y Y Y R 0 9 ",
"R W W I Y Y Y w w w R 1   o #  .| G @ X 7 0 0 0 w w w Y T w w w ",
"I W R R R E w w w 0 7 s Z l i / M u c M 3 7 I 0 w 9 w Y w w 0 0 ",
"W Q Q W R R R e R 7 5 ' <.%.~ ] + d  .#.H 5 7 q 9 0 Y Y e e e q ",
"e R Q R R R Y Y q ; l ;.>.>.:.X.C  .*.*.+.z ; R Y w 8 0 e 0 9 9 ",
"R W W q q q 0 R R ; k $.=.=.=.=.$.$.=.=.#.z > W R 0 0 9 0 0 8 9 ",
"E E R w Y R 0 R e ; k ..) / } #.$.*.=.$.#.k & 9 w w 9 0 w w 0 0 ",
"R E R Y 0 R 0 9 e ; k ^ y t n @.=.$.=.=.#.z ; 0 w w 0 0 0 0 I R ",
"e w w w 0 9 8 0 q ; z ~ r b [ &.=.=.=.$.#.z ; Y w w 0 0 0 I I I ",
"R q e w 9 0 0 Y w ; d ( m ! ,.=.$.$.=.=...h , R 0 0 8 I I 0 0 0 ",
"q q w 0 9 0 0 0 w , $ F  .&.-.*.=.=.$...x 1 0 0 0 0 I 0 9 0 9 0 ",
"w R e w 0 0 Y Y Y 0 1 z ..+.$.+.O.$.` z < 9 Y 9 0 0 9 9 0 0 0 I ",
"Y R R R I Y 0 Y Y Y 0 2 f D K S j P _ $ , 0 9 9 0 0 I Y w 9 0 9 ",
"0 R Y w 0 0 0 I Y Y Y > + J L S @ ) o.p , 0 0 0 0 0 0 9 0 9 w 9 ",
"Y T 0 9 R 0 0 0 w 9 0 , $ K L J $ { X.a , 9 I Y I Y 0 9 9 w w 9 ",
"Y Y Y 0 0 R Y 0 0 w Y 8 : g B N O a k 4 8 R 0 0 Y 0 0 0 9 0 0 0 ",
"0 0 I 0 9 0 I w w w 0 0 6 2 v v 1 ; , 9 Y 0 0 w w 0 0 0 8 0 0 Y ",
"I 0 R 0 q 0 9 0 w 9 9 9 w w w w R R W Y 0 0 0 Y w 9 w 9 w 9 9 9 ",
"Y T Y 0 Y 0 0 9 9 9 w w w w w w w T I I I Y 0 0 9 0 w w w 9 w w ",
"R 0 q q w R 0 0 w w w w w w w 9 R 9 9 0 I I 0 w 9 0 w w w 0 w w ",
"T R 0 0 0 Y 9 9 w w w w 8 7 9 w e 9 0 R 0 I 0 0 9 w 9 9 9 0 Y 0 ",
"R R R R w 9 0 w 9 w Y w w 9 9 w w w 0 w 0 0 0 0 9 0 0 9 0 0 0 0 ",
"Y 0 0 0 w w e q w w w 0 w w 0 w e w w 0 0 Y 0 9 9 0 9 Y w 0 9 0 ",
"e 0 0 e 0 w q 0 9 w 9 w w Y w w 9 0 w w 0 w 0 0 0 8 9 0 I 0 0 I ",
"9 Y R 0 0 e w 0 w w w w w w w 9 9 w w 9 9 I 0 0 I I 0 0 0 9 9 0 "
};
