/* XPM */
static char *_ab67051587549daeb8435beb4f66dc5BAhPBjKCDvt28QjW[] = {
/* columns rows colors chars-per-pixel */
"32 32 103 2 ",
"   c #576F29",
".  c #56742B",
"X  c #5A762B",
"o  c #5D7B2D",
"O  c #5E7D30",
"+  c #617D2E",
"@  c #717D2F",
"#  c #656D36",
"$  c #637533",
"%  c #6B7535",
"&  c #617D31",
"*  c #637C31",
"=  c #607F30",
"-  c #647F30",
";  c #697831",
":  c #6A743C",
">  c #6A7A3A",
",  c #717C33",
"<  c #797E34",
"1  c #73743A",
"2  c #707B3F",
"3  c #767E44",
"4  c #747648",
"5  c #76784A",
"6  c #817F52",
"7  c #847D58",
"8  c #987C65",
"9  c #9C7C69",
"0  c #A67E74",
"q  c #AB7C74",
"w  c #C36B78",
"e  c #C1727D",
"r  c #5F802E",
"t  c #5F8030",
"y  c #63822F",
"u  c #65812F",
"i  c #63842F",
"p  c #65842F",
"a  c #68882F",
"s  c #73812E",
"d  c #638131",
"f  c #628332",
"g  c #648131",
"h  c #658431",
"j  c #648634",
"k  c #688632",
"l  c #6B8335",
"z  c #698734",
"x  c #638832",
"c  c #678832",
"v  c #678C32",
"b  c #688833",
"n  c #688B34",
"m  c #7D804E",
"M  c #838E2E",
"N  c #8A972C",
"B  c #8D982B",
"V  c #909E29",
"C  c #868A30",
"Z  c #97A725",
"A  c #9AB022",
"S  c #89815C",
"D  c #918462",
"F  c #9C826C",
"G  c #A38675",
"H  c #A18973",
"J  c #A58A79",
"K  c #AC8D7D",
"L  c #BD7E84",
"P  c #C67682",
"I  c #C87482",
"U  c #C37D85",
"Y  c #CA7A86",
"T  c #C67E89",
"R  c #CC7E8A",
"E  c #D37586",
"W  c #D37D8C",
"Q  c #B58486",
"!  c #B09184",
"~  c #B59288",
"^  c #B9938D",
"/  c #BE8D90",
"(  c #BF9396",
")  c #CB818D",
"_  c #C0928F",
"`  c #CB8490",
"'  c #C48891",
"]  c #CC8C95",
"[  c #D38492",
"{  c #D58F99",
"}  c #DB8A9A",
"|  c #C29595",
" . c #CA959A",
".. c #C39A9A",
"X. c #CD989A",
"o. c #DB909E",
"O. c #D993A2",
"+. c #D49DA6",
"@. c #DC9EA8",
"#. c #E393A5",
"$. c #EA94A9",
"%. c #ED9AAF",
"&. c #D9A2A9",
/* pixels */
"+ h p p h y h p d = - - g h h + o y g z h h g j = O O o o u g b ",
"g h h h h g z b k k k h u h h d y u h c h y o o d d d O o = = h ",
"g g h b h g h d + g g g h b h = X o h h y o o + o o y + o + o O ",
"d h h h k h d c h h h g h a b o X = h h g h b b d o o o o g - d ",
"d y + h b u g b d o h d o o + o o h h h = g g g = + + o + d p + ",
"g d + h = y u b y + d o o o y d y h h + X O d g O X X o d y = + ",
"k h g d y o y h y d n h d o + d h h u u = O d y o o y g p o + + ",
"y o d h h o o y d h v h u + y h h b h + o - o o o o d u p g o X ",
"d x c y d u y + y o i g u u o d d h + o o + X o o o d u p + + o ",
"y b h y g g o o = = o o + + = o d + + o + + y + + X o u + + o o ",
"h z b h h h g d d y X + + u g y + o o + + y y + o o y y + + o O ",
"+ g n c d h y + + o o + o g g + + o g g = o o d d o . o + o X X ",
"h h j O + o o g h o o h p u y y y d d + d o + g h o o X + o X X ",
"h b h + y y o d - o o u u y + = = o X X X o o o d o X o o + o X ",
"p h g y y h o o = o X h X o S ~ ^ H : . X o o + + + o o o + d d ",
"+ + o y o X . X o o o = 4 F / ] ] +.! $ X X o u o o X o o y r d ",
"d O = + o o o d o y o 7 ..( Q U Y { | G = o o d o o X o y o X X ",
"= + y o X o o + + ; D  .+.[ E U w ) L o.6 y d o + o o X o X o o ",
"+ g g + o + + + y > X.W [ P e Y e R P #.S o o o o o o o o o o o ",
"y d d d + + o u p y F R } R I e E W [ O.q $ o X o o o + + o o o ",
"+ h y + + o o r o + 2 U ] T [ R R ) ' } K X o o o o o X o o o o ",
"u p o o y + O o o o o 8 R ] } ) ` W T _ > X o r y y o X o o o X ",
"u + y o o = d o o + + > 9 0 &.%.$.@.| D + d o o y + o X o o o o ",
"o o r X X + + o + + + o X $ 5 J J m 3 z o + o + o o o o X X o r ",
"o o d o o o o o + o o o , < ; $ % d i y o o o y + o + o o X X o ",
"g h y o y o o X X o o $ C A V % : l ; o O d o o X o + + + o o o ",
"g d o o o d + X o + o + X @ s # 1 M B , d d o + o o + + + o + + ",
"h d o o o u o X o y + + .   X # < Z N , = + o o o o X X o o t O ",
"h h d g + X o o X + u d o o o # ; ; + o + o o o o o o X o o o o ",
"y + o o o d = o o + o o o + o $ = o o o o + o X X o X + y o X o ",
"+ o o y o + o o o o o + + g + o o o y + o + o o X X X o + + o + ",
"X y y o o + + o o + + + o + + . X + o X X o o o o o o o o X X X "
};
