/* XPM */
static char *ce2fb24053ce458fb7482adfc6659647rKcc3dIoYASf37IU[] = {
/* columns rows colors chars-per-pixel */
"32 32 171 2 ",
"   c #2C1C07",
".  c #3C2E0D",
"X  c #3C320F",
"o  c #27291B",
"O  c #322815",
"+  c #3A2A16",
"@  c #332B1B",
"#  c #3D2E1C",
"$  c #373814",
"%  c #3B3C14",
"&  c #202022",
"*  c #2B2E25",
"=  c #332C20",
"-  c #372A2D",
";  c #373E26",
":  c #363D29",
">  c #452D09",
",  c #4E2F08",
"<  c #512F08",
"1  c #42370E",
"2  c #4D340A",
"3  c #463A0E",
"4  c #523508",
"5  c #53350B",
"6  c #5C350A",
"7  c #5B3B0B",
"8  c #4A3216",
"9  c #443C12",
"0  c #43321F",
"q  c #49351B",
"w  c #5A3912",
"e  c #683907",
"r  c #62370A",
"t  c #643A0B",
"y  c #6C3E0B",
"u  c #443321",
"i  c #53353C",
"p  c #563C3B",
"a  c #3E4116",
"s  c #3D461A",
"d  c #3F4919",
"f  c #3B501C",
"g  c #384726",
"h  c #434315",
"j  c #4B4A17",
"k  c #424B19",
"l  c #454819",
"z  c #42521D",
"x  c #4A541D",
"c  c #63420D",
"v  c #6D410A",
"b  c #74440A",
"n  c #794609",
"m  c #7E4A0A",
"M  c #634013",
"N  c #684710",
"B  c #465A20",
"V  c #495729",
"C  c #475A29",
"Z  c #495B2B",
"A  c #5D4539",
"S  c #644039",
"D  c #664A3E",
"F  c #4E6323",
"G  c #4F6925",
"H  c #4D632A",
"J  c #516725",
"K  c #526C27",
"L  c #526E29",
"P  c #537026",
"I  c #56732A",
"U  c #5A762C",
"Y  c #5D7B2D",
"T  c #5F7D30",
"R  c #617D2E",
"E  c #667A32",
"W  c #617E30",
"Q  c #3A3244",
"!  c #5D3E42",
"~  c #653D44",
"^  c #3A4160",
"/  c #5F4846",
"(  c #4A4456",
")  c #544C5F",
"_  c #75494E",
"`  c #675748",
"'  c #785548",
"]  c #6F5253",
"[  c #745653",
"{  c #7E6159",
"}  c #824D0A",
"|  c #86510B",
" . c #8B530B",
".. c #854B55",
"X. c #954D5B",
"o. c #8C545E",
"O. c #855D5D",
"+. c #9A595B",
"@. c #86645F",
"#. c #996156",
"$. c #8F5C63",
"%. c #955D66",
"&. c #A35363",
"*. c #AE5969",
"=. c #B95F6F",
"-. c #8B6265",
";. c #93656B",
":. c #9C656E",
">. c #986A6C",
",. c #8E6471",
"<. c #9D6A71",
"1. c #A16F73",
"2. c #A77276",
"3. c #A77378",
"4. c #AB757C",
"5. c #B6777E",
"6. c #B1797E",
"7. c #C56274",
"8. c #C86275",
"9. c #D2677A",
"0. c #D36C7D",
"q. c #5F802E",
"w. c #5E8130",
"e. c #62812E",
"r. c #628130",
"t. c #648331",
"y. c #638430",
"u. c #658431",
"i. c #6A8632",
"p. c #668934",
"a. c #698932",
"s. c #6C8C31",
"d. c #698834",
"f. c #6A7388",
"g. c #8E6C80",
"h. c #92718A",
"j. c #9C7A89",
"k. c #A7798A",
"l. c #BB7D84",
"z. c #B6788A",
"x. c #CA7C86",
"c. c #D47584",
"v. c #DB7988",
"b. c #E17284",
"n. c #7E8597",
"m. c #A18485",
"M. c #AE8290",
"N. c #B495A2",
"B. c #C18287",
"V. c #C38189",
"C. c #CA898D",
"Z. c #D3828C",
"A. c #DB828D",
"S. c #CD8991",
"D. c #DE8792",
"F. c #C69194",
"G. c #D89196",
"H. c #E58894",
"J. c #E8949D",
"K. c #F49FA6",
"L. c #C1A1AA",
"P. c #D7B8BE",
"I. c #F4A0A7",
"U. c #F6A3A9",
"Y. c #F8A8AD",
"T. c #F9AEB2",
"R. c #F9B3B6",
"E. c #F7BDBD",
"W. c #F1C0BD",
"Q. c #FCC0C2",
"!. c #FDC9C9",
/* pixels */
"u.u.u.u.t.i.i.d.d.i.i.t.e.u.u.r.u.e.t.a.a.a.e.r.r.t.W Y U Y r.W ",
"t.d.u.u.u.p.u.e.t.u.t.u.i.i.t.r.Y R u.u.e.R U Y Y W W r.r.Y T Y ",
"u.u.a.t.t.r.u.R t.u.t.u.a.s.e.Y U Y y.u.t.e.e.e.r.Y Y Y Y Y R R ",
"u.r.a.a.e.u.a.t.e.i.u.u.e.e.u.Y U r.u.u.t.r.a.a.a.R Y Y U Y r.t.",
"Y r.a.u.R t.a.e.Y y.u.Y U U I I Y u.u.u.R r.t.W r.Y Y R U e.R y.",
"R u.u.Y t.e.a.e.R r.T Y Y k 3 1 B u.u.e.Y U r.r.u.Y U U Y e.e.R ",
"t.Y L G G K L K I p.p.w.Y h m b a r.e.e.r.Y T T Y Y U e.u.e.R Y ",
"U h 5 7 7 7 7 5 X k l h h . < , . j j h a h h l h l l x J Y i.R ",
"Y 1 b |  .} y y 8 # # # w m } n n n w # # # 8 t t r e v 2 F e.R ",
"u.f   t m } 6 8 [ 2.1.1.' M m 6 b 7 A <.1.2.O.q 6 b n  .v F r.R ",
"z 1 7 n } } t q >.Z.%.6.-.= # # q @ ] l.$.x.6.u r } } t 9 I R R ",
"X n | } m } r w A ! - -.F.m.m.m.m.m.F.3.- p D M t n b 6 1 I R Y ",
"s , b m } } r t 5 @ / C.Y.E.!.!.!.Q.T.G.] @ 7 } v |  .| c J q.I ",
"B > b }  .| y | | 8 ;.U.U.Y.R.R.R.T.U.U.4.0 m | v | | r h U Y U ",
"x < n m } } r b y + ;.I.I.I.I.U.U.I.I.U.4.0 n b r n | v . F e.Y ",
"Y % 2 > > t 6 6 6 + ;.V.:.:.V.I.S.:.:.l.3.u n n b n } } 5 B R e.",
"Y U I G z d k k $ / B.M.) Q ,.I.4.Q ( j.S.] + . X X X . $ U e.Y ",
"T r.Y U Y Y y.Y g >.U.P.n.^ g.I.k.^ f.P.U.6.: L U I P K U e.Y U ",
"e.R Y U Y Y R R C ` C.E.L.h.z.v.z.h.N.W.G.{ Z Y Y R Y Y U Y U Y ",
"u.R Y Y R R R e.H ` -.5.J.I.H.c.D.K.J.x.{ Z Y Y Y Y Y U Y Y Y Y ",
"t.W y.e.R R e.t.g ;.:.X.c.A.A.A.A.A.c.&.p C U U U U Y Y R R Y Y ",
"u.e.R R Y Y e.R C [ o.*.9.8.8.8.8.8.0.v.o.; I U Y Y U Y Y R U Y ",
"e.U R R Y Y Y Y U C * ..v.b.7.+.=.v.H.K.4.: I Y q.e.e.Y I Y Y Y ",
"e.U Y e.t.w.U Y Y U g _ 9.=.~ & i *.c.Z.@.V Y Y Y e.e.Y Y Y Y Y ",
"e.Y U Y W e.Y R R W C D +.S # O o A #.' V U Y Y Y e.q.Y U U Y Y ",
"q.Y U Y R Y Y R R Y U Y E l n n % T E i.Y Y R Y e.Y Y Y Y U U U ",
"e.e.Y W Y Y Y Y Y Y U R R l m n h u.e.e.Y Y Y Y e.Y Y R Y R U I ",
"e.Y R e.U U U U U Y e.e.R l m n h u.q.Y Y r.Y Y Y U Y R R R Y Y ",
"Y Y Y R y.Y U Y Y Y Y Y U a b e % U U Y q.r.Y Y R Y Y R R R U Y ",
"Y Y Y e.u.U U Y e.R R U I s N c k Y Y r.Y R r.Y U Y Y Y U Y Y Y ",
"u.r.e.Y U Y Y U R e.u.Y U I Y R U Y R r.R Y Y Y Y Y U U U U Y e.",
"e.Y R R Y r.T Y R R R Y Y Y U R e.e.R Y Y Y Y Y Y U Y Y Y R Y I "
};
