/* XPM */
static char *_b5123e350e54151de3656120e470d8044Z4X8LjDD02g115[] = {
/* columns rows colors chars-per-pixel */
"32 32 168 2 ",
"   c #161F1B",
".  c #28341F",
"X  c #29381F",
"o  c #242422",
"O  c #2C2427",
"+  c #262F22",
"@  c #3A2F2F",
"#  c #263020",
"$  c #313B25",
"%  c #323629",
"&  c #38372F",
"*  c #34382A",
"=  c #372E3F",
"-  c #3C3334",
";  c #3E3933",
":  c #483836",
">  c #4B3539",
",  c #4B3D3C",
"<  c #503D36",
"1  c #53363B",
"2  c #523B39",
"3  c #364525",
"4  c #374A24",
"5  c #3A4D25",
"6  c #3D432C",
"7  c #3F4A2A",
"8  c #3E5126",
"9  c #454B2F",
"0  c #435426",
"q  c #455A26",
"w  c #485F27",
"e  c #455429",
"r  c #49572B",
"t  c #455A29",
"y  c #4B5D2A",
"u  c #454432",
"i  c #47433F",
"p  c #4D5134",
"a  c #55513C",
"s  c #58533D",
"d  c #4B6226",
"f  c #4C622A",
"g  c #506B27",
"h  c #536C2B",
"j  c #56712C",
"k  c #5A762B",
"l  c #5D7B2D",
"z  c #5F7D30",
"x  c #617E2E",
"c  c #6E633B",
"v  c #72633D",
"b  c #617E30",
"n  c #382F40",
"m  c #323A54",
"M  c #4C3B4A",
"N  c #523E4E",
"B  c #6F3E48",
"V  c #494341",
"C  c #564443",
"Z  c #5A4243",
"A  c #5C5340",
"S  c #4D4355",
"D  c #49445D",
"F  c #61494A",
"G  c #75414C",
"H  c #67574A",
"J  c #7A5A5A",
"K  c #736640",
"L  c #494D71",
"P  c #5B5475",
"I  c #8E4B57",
"U  c #954E5A",
"Y  c #815D5E",
"T  c #9C525E",
"R  c #856B47",
"E  c #84625E",
"W  c #865A63",
"Q  c #9A5360",
"!  c #A25463",
"~  c #AE5C6A",
"^  c #B35E6C",
"/  c #BB5C6B",
"(  c #876262",
")  c #8D6566",
"_  c #92646A",
"`  c #966B6D",
"'  c #996C6D",
"]  c #8A6B7B",
"[  c #9E6E71",
"{  c #A26F73",
"}  c #AC6B73",
"|  c #B06A74",
" . c #A17173",
".. c #AC737A",
"X. c #B37A7E",
"o. c #C46576",
"O. c #CD6477",
"+. c #CE6478",
"@. c #CE687B",
"#. c #D56A7E",
"$. c #D86B7F",
"%. c #CB707F",
"&. c #5E802E",
"*. c #5F8030",
"=. c #63822F",
"-. c #68882F",
";. c #648331",
":. c #698733",
">. c #658832",
",. c #698932",
"<. c #6A8933",
"1. c #676E84",
"2. c #6E748A",
"3. c #B77C81",
"4. c #BC7F86",
"5. c #AE7E92",
"6. c #B07C90",
"7. c #DB6E80",
"8. c #C57687",
"9. c #C97883",
"0. c #D97685",
"q. c #D57986",
"w. c #D57C88",
"e. c #D87E8A",
"r. c #E27386",
"t. c #E77E8E",
"y. c #BA828E",
"u. c #AD8094",
"i. c #BE8494",
"p. c #8E93A1",
"a. c #979BA7",
"s. c #BBA8B6",
"d. c #C4848B",
"f. c #C88189",
"g. c #CE8A8F",
"h. c #D3858D",
"j. c #C78896",
"k. c #D48D93",
"l. c #DA8F97",
"z. c #DA9197",
"x. c #E8808F",
"c. c #E58E98",
"v. c #E3949A",
"b. c #EA949C",
"n. c #E7999E",
"m. c #E69DA1",
"M. c #EC9BA2",
"N. c #F39DA4",
"B. c #CEA0A8",
"V. c #D2A7A7",
"C. c #D2A6AA",
"Z. c #D2A8A8",
"A. c #EAA1A4",
"S. c #E5A5A8",
"D. c #EBA4AB",
"F. c #F3A0A6",
"G. c #F7A3A9",
"H. c #F8A4A9",
"J. c #F6AAAE",
"K. c #F8AAAF",
"L. c #F6ACB0",
"P. c #FAB7BA",
"I. c #F5BDBA",
"U. c #FBB9BC",
"Y. c #FEC7C7",
"T. c #FEC7C8",
"R. c #FFCACA",
"E. c #E5D1CC",
/* pixels */
"x ;.=.=.;.=.;.=.;.b b b ;.;.;.x l =.;.:.;.;.;.>.b z z l l =.;.,.",
";.;.;.;.;.;.:.,.:.:.:.;.=.;.;.;.=.=.;.>.;.=.l l ;.;.;.z l b b ;.",
";.;.;.,.;.;.;.;.x ;.;.;.:.,.;.b k l ;.;.=.l x =.l l =.x l x l z ",
";.;.;.;.:.;.j j h h j l :.-.,.l k b ;.l h g j j j k l l l ;.b ;.",
";.=.x ;.,.k 7 * % % * r k l l x l ;.b y * % * * 6 h l k x ;.=.x ",
";.;.x ;.h 9 E { { { [ H 8 j x ;.=.x t H [ { { { ( 9 d l ;.=.b x ",
":.;.;.;.f & 3.b.9...k.( + 4 0 q q 8 # J k...9.b.d.; w ;.=.l x x ",
"=.l ;.;.h 6 ' | G > X. .V i i i i i V ` 4., B } { u f =.=.;.l k ",
";.>.>.=.l h u @ O - 3.S.V.Z.Z.Z.Z.C.V.S.d.: O @ u f l =.=.x x l ",
"=.,.;.=.;.x w X - ' z.K.U.Y.R.R.R.T.U.K.v.{ : . q j l =.x x l l ",
";.:.,.;.;.;.x 5 C z.G.G.J.P.U.U.U.P.K.G.G.v.F 3 k l =.=.x x l z ",
"x ;.,.>.;.;.x 5 C z.H.G.G.G.G.G.G.H.G.G.H.v.F 4 *.l k l x l k k ",
";.;.>.z x l l 5 C z.N.M.M.M.F.G.F.M.M.M.M.v.F 4 ;.x k k x k k k ",
";.,.;.x =.=.l 5 C g...W W _ k.G.l._ W W { k.F 3 l l k l l x l k ",
"=.;.;.=.=.;.f a _ k.] S n M 4.H.d.N = S ] k.' s f l l l l x ;.;.",
"x x l =.l g $ Y n.D.s.2.m D y.H.j.D m 1.s.D.M.) $ g l l l =.&.;.",
";.z b x k g $ Y n.J.E.a.L P i.N.j.P L p.E.L.M.) $ g k l =.l l k ",
"b x =.l k k y s ` m.I.C.u.5.8.9.8.6.5.B.I.A.[ A y k l k l k l l ",
"x ;.;.x l x l y a ' f.b.F.N.e.%.w.M.G.b.h. .a 0 k l l l l l l l ",
"=.;.;.;.x x l k y 2 T q.b.b.b.c.b.b.b.e.! 2 e h k l l x x l l l ",
"x ;.=.x x l k t < I o.@.o.o.o.o.o.o.o.@.o.U < t k k l k l l l k ",
"=.=.l k =.k t H { w.r.$.+.O.O.O.O.O.+.#.r.w.} H t k l k l l l k ",
"=.x =.l l j $ W M.N.x.r.r.7.^ Q ~ 7.r.r.t.N.F._ $ g l k l l l l ",
"l l &.k k j 3 J g.k.0.7.#.^ 1 o > ~ #.7.0.h.g.E 3 g l l k k l &.",
"l l ;.l l l h p , Z T / T 1 o   o > U / T Z , p h k x l l k k l ",
";.;.=.l =.k k d 5 0 c R v e 8 8 8 r c R K r 5 f k l x x x l l l ",
";.;.l l l ;.x k k l x x k k k l b k k l ;.b l x l l x x x k x x ",
";.;.l l l =.l k l =.x x k k l l x l l ;.l x l l l l k k l l *.z ",
";.;.;.;.x k l l k x =.;.l k l x x x x x x l l l l l l k l l l l ",
"=.x l l l ;.b l l x l l l x l l x x l l l x l k k l k x =.k k l ",
"x l l =.l x l l l l l x x ;.x l l l =.x l x l l k k k l =.x l x ",
"k =.=.l l x x l l x x x l x x k k x l k k l l l l l l l l k k k "
};
