/* XPM */
static char *_74ce4590a8444bf925ae3a84ef94596yhGUVbQYEa7A7Q8u[] = {
/* columns rows colors chars-per-pixel */
"32 32 73 1 ",
"  c #47562F",
". c #48572D",
"X c #47582E",
"o c #4B5C2E",
"O c #42463A",
"+ c #45493D",
"@ c #4A5933",
"# c #4F593D",
"$ c #535E3F",
"% c #4E632D",
"& c #52652E",
"* c #546B2D",
"= c #586F2F",
"- c #57742C",
"; c #5A762C",
": c #5D7B2D",
"> c #506631",
", c #566C30",
"< c #596E32",
"1 c #54613D",
"2 c #5A7131",
"3 c #5E7D30",
"4 c #617E2E",
"5 c #607F30",
"6 c #657F30",
"7 c #4E5345",
"8 c #53554F",
"9 c #525351",
"0 c #606950",
"q c #62645E",
"w c #676D5F",
"e c #646662",
"r c #676962",
"t c #6B6D65",
"y c #6F706D",
"u c #727271",
"i c #797B75",
"p c #7D7D7C",
"a c #5F802E",
"s c #5F8030",
"d c #63822F",
"f c #65812F",
"g c #63842F",
"h c #65852F",
"j c #68882F",
"k c #638131",
"l c #648130",
"z c #638431",
"x c #658431",
"c c #648634",
"v c #688632",
"b c #698734",
"n c #638832",
"m c #678832",
"M c #678C32",
"N c #688833",
"B c #688B34",
"V c #7E807B",
"C c #80807E",
"Z c #858584",
"A c #878884",
"S c #8D8D8B",
"D c #929292",
"F c #9A9A9A",
"G c #ABABAB",
"H c #AFAFB0",
"J c #B7B7B7",
"K c #BBBCBB",
"L c #C4C4C4",
"P c #CBCBCB",
"I c #D0D0D0",
"U c #DDDDDD",
"Y c gray88",
/* pixels */
"4xhhxdxhk566lxx4:dlbxxlc533::flN",
"lxxxxlbNvvvxfxxkdfxmxd::kkk3:55x",
"llxNxlxz4lllxNx5;:xxd::4::d4:4:3",
"kxxxvxkmlxxlxjN:;5xxlxNNk::::l6k",
"kd4xNflNk:xz::4::xxx5lll544;4kh4",
"lk4x5dfNd4k:::dkdxx4;3kl3;;:kd54",
"vxlkd:dxdkBxk:4kxxff53kd::dlh:44",
"4:kxx::dzxMxf4dxxNx4:6::::kfhl:;",
"knmdkfd4d:glff:kkx4::4;:::kfh44:",
"dNxdll::55::445:k44:44d44;:f44::",
"xbNxxxlkkd;44fld4::44dd4::dd44:3",
"4lBmkxd44::4:ll44:ll5::kz:-:4:;;",
"xxc34::lx::xhfdd4lk4k:4lx:;;4:;;",
"xNl4dd:k6::ffddz::;;:;::k:;::4:;",
"hxlddx::5:;x::4xk:;-;::444:::4kk",
"44:d:;-;:;:k;:kv4-;:;;:f::;::dak",
"k354;;:k:d:-;:44:::3:::k:;;:d:;;",
"54d:;::444::::444hxk4lk:4::;:;::",
"4ll4:444dd4;::d44vhx55::::::::::",
"dkkk44:fhhxdd:**:z;*-:;;;::44:::",
"4xd44::a:d4:k%O#%*1+o;:::::;:::;",
"fh:;d43::::::oqAqqAu ;:add:;:::;",
"f4d::5k::45:-orGHLJyok::dd:;::::",
"::a;;44:444:;orDFLF9.4:4::::;;:a",
"::k:::::4:;:4oeJPPPpX::d4:4::;;:",
"lxd:d;;;;;:4;1pKLLGw>5::;:444:::",
"lk:::k4;:4:4oqGLUUS@:k:4::444;44",
"xz:::f:;:d44.eJIYYS@:4::::;-::s3",
"xxzl4;::;;&&$CLLKLS0=::::::;::::",
"d4:::k5:-1e9eGLFADAZo4:;;:;4d;;:",
"4::d:4::%7iq8VSyqtero4::;;;:d4:4",
";dd::44:;-2<,<<&*2***::::::::;;;"
};
