/* XPM */
static char *_3d3421edfa4403fea0e578c2ac27e10OkuRljzM7Bnmxit8[] = {
/* columns rows colors chars-per-pixel */
"32 32 126 2 ",
"   c #1D1C25",
".  c #1F1E28",
"X  c #211D26",
"o  c #281D26",
"O  c #211F29",
"+  c #23222C",
"@  c #29232E",
"#  c #262431",
"$  c #2A2633",
"%  c #2B2935",
"&  c #2E2B3A",
"*  c #332A36",
"=  c #322E3C",
"-  c #3B2F3E",
";  c #33313E",
":  c #3C323E",
">  c #322F40",
",  c #353243",
"<  c #3A3545",
"1  c #3B3946",
"2  c #3A3649",
"3  c #3C394C",
"4  c #3F3C51",
"5  c #423647",
"6  c #443847",
"7  c #443D4D",
"8  c #483A4D",
"9  c #423E53",
"0  c #444154",
"q  c #494254",
"w  c #46435A",
"e  c #4B465C",
"r  c #4C495E",
"t  c #51465C",
"y  c #51495D",
"u  c #4B4760",
"i  c #4E4A62",
"p  c #4F4C68",
"a  c #524D64",
"s  c #534F69",
"d  c #535065",
"f  c #5E5165",
"g  c #55526B",
"h  c #5A556B",
"j  c #5A586A",
"k  c #575372",
"l  c #5A5672",
"z  c #5D5973",
"x  c #5E5B79",
"c  c #60556B",
"v  c #625C75",
"b  c #625D7B",
"n  c #646276",
"m  c #6F6076",
"M  c #65617C",
"N  c #6A637D",
"B  c #7B687F",
"V  c #655F81",
"C  c #666183",
"Z  c #6A6584",
"A  c #6D6A85",
"S  c #6B668A",
"D  c #6E6A8C",
"F  c #726683",
"G  c #736A83",
"H  c #726C8C",
"J  c #786F8E",
"K  c #74718D",
"L  c #7B798F",
"P  c #736D92",
"I  c #767295",
"U  c #797494",
"Y  c #7B7797",
"T  c #7C7695",
"R  c #7C7990",
"E  c #7E7A95",
"W  c #76719A",
"Q  c #7C739A",
"!  c #7A7699",
"~  c #7F7699",
"^  c #78739C",
"/  c #7A759C",
"(  c #7E7A99",
")  c #7D799F",
"_  c #7C77A1",
"`  c #7D78A4",
"'  c #807C96",
"]  c #807B9D",
"[  c #837B9C",
"{  c #827C9E",
"}  c #837EA3",
"|  c #847FA2",
" . c #827CA4",
".. c #847EA6",
"X. c #837EAA",
"o. c #867EAA",
"O. c #84809F",
"+. c #8580A3",
"@. c #8783A6",
"#. c #8883A6",
"$. c #8984A7",
"%. c #8682A8",
"&. c #8781AC",
"*. c #8C83AA",
"=. c #8A84AB",
"-. c #8F8CA9",
";. c #9289AB",
":. c #8B84B2",
">. c #8E88B5",
",. c #8F8AB8",
"<. c #9085B1",
"1. c #938DB6",
"2. c #948FB5",
"3. c #988AB6",
"4. c #998CB7",
"5. c #918CBB",
"6. c #9991B7",
"7. c #9B90BA",
"8. c #9791C4",
"9. c #9993C0",
"0. c #9993C4",
"q. c #9E99C3",
"w. c #9D96CC",
"e. c #9F98CD",
"r. c #A69ECC",
"t. c #A7A1D3",
/* pixels */
"+ + + + O @ < e z H U b # ; , < 0 i r r a w , # + + # = # + + + ",
"% @ % 0 d n R ;.6.7.4.~ % 3 g z M Z ( 7.| H 0 # % < 0 h h 3 1 < ",
"i & = h H K T | *.<.3.M # 0 l l l b U 2.{ D 3 + 2 g n N K K ] U ",
"A , + 6 t y a z C ^ o.a + 2 l l l x I =.Q C 3 + 2 d b Z A K ) %.",
"y % O * * + # , w g s 2 + % 2 q z b b H S l , + < r l z n M Z v ",
"@ + . # % # + + # $ # + O + + # = , & > < , $ @ % ; < 1 3 3 7 : ",
"% ; & $ + . . . . O + + + + + .           O + + + + @ + + + + + ",
"! | #.( M a 4 + . % 2 q z P r r 9 + O + < 0 a a 3 , j h = $ w Z ",
"#.$.U +.1.9...<   > s J { } v F ! % + 2 b H O.-.L G R ' 3 # l %.",
"A A S Z V ~ =.9   = g H I K A F H & $ 4 l A T E K U A A 7 + 0 M ",
"C b D P D P ~ 0   & r v A H H G b & $ 2 g Z A A Z K n n r + 2 z ",
"C C S D S b v < . # < 9 g b M b 0 O # & 3 i h h v D h n d + $ i ",
"4 4 3 w 2 , , + . O + # & & , > + O O O + # & & < 3 2 0 < + + % ",
"+ $ & % .   % , # O . .       . . . . . + & 2 & + O X @ % & % O ",
", h v v & + i T H h r 0 9 9 & + $ , 0 l P } &.z 4 & & w C ` ^ s ",
"r 3 q a = # e  .1.0.e.e.8.&.u + r ^ >.:.I C Z _ D 2 = p X.:.&.%.",
"D a 1 ; @ + < Z _ / >.w.5.) w + u ) ) S u w b :.x & & w C W / ! ",
"Z A n d , + = e s w i Z Z M q + 9 C l i u l D ,./ 2 + 2 k C S S ",
"j N v y ; O # * @ o * 8 e a 3 O # 4 2 & & 9 x D s & . & 4 u i a ",
"< 1 , # + . . X X X + + # + .   . . . . . + % + O .   O + # $ % ",
"O + O # & , 3 3 9 3 #   # < w r r r i i 4 +   # 2 $ + + .     . ",
"+ O = b } P l D :.H , + w } q.2.@.>.8.w.P , # s D Z D I 0 3 s l ",
"+ + a { =.A l g I ) < # q K H v d g P ` ^ < < C D o.t.r.g Z :.5.",
"# # h ( U z D H z b 2 + ; q y d g 0 s p l 2 & b T { $.G 7 z b C ",
"& + 0 c h & = g a 0 & O O + = 0 s l l i t = + < f m B 6 * 0 i w ",
"% O $ - *     # $ # O .   . O @ * ; = < - @ + + @ $ : $ @ @ = & ",
"+ O . O O .   . + # + X @ + + + O O O + + . O + + + + + + + + # ",
"r q 5 = , 2 $ % i S P 7 g l H P 9 O & 0 r 0 e 0 2 < , @ = 9 9 w ",
"] ] ] H P S , $ s P =.A M Z ) H 1 O 3 C b n Z U ! ! C & 9 H ~ } ",
"S D P P D C = + 9 s l d z D g i & + 9 b g Z M Z P I b = 4 Z X.W ",
"S V V S C l & . % , < ; e 9 * , # O < h h y 8 t v M a & > u S S ",
"w 3 w u 0 , . . + O + O + # @ + + O # = * @ + # = 5 = + O , 2 w "
};
