/* XPM */
static char *d96d5eb446e64c1a8685ea9e1dc4abbdR6GfW1giTChkFA2r[] = {
/* columns rows colors chars-per-pixel */
"32 32 124 2 ",
"   c #35282A",
".  c #3B292D",
"X  c #2C3722",
"o  c #33342A",
"O  c #3F2B30",
"+  c #452B32",
"@  c #443637",
"#  c #403B3B",
"$  c #493C3B",
"%  c #364325",
"&  c #394427",
"*  c #3E4E27",
"=  c #394628",
"-  c #3F4F28",
";  c #3F5227",
":  c #454C2E",
">  c #425527",
",  c #445928",
"<  c #474037",
"1  c #4D5231",
"2  c #4D5831",
"3  c #59513E",
"4  c #4D642A",
"5  c #4F6829",
"6  c #536B2A",
"7  c #57732C",
"8  c #5A762B",
"9  c #5D7B2D",
"0  c #5E7D30",
"q  c #617D2E",
"w  c #647434",
"e  c #617E30",
"r  c #72763B",
"t  c #333A56",
"y  c #473545",
"u  c #5D5540",
"i  c #5D5943",
"p  c #5B4858",
"a  c #654240",
"s  c #6E4448",
"d  c #75454D",
"f  c #7A414D",
"g  c #605E4A",
"h  c #6A4F50",
"j  c #7D4A51",
"k  c #6C5C5C",
"l  c #755657",
"z  c #7C5156",
"x  c #6B5F7D",
"c  c #804E4E",
"v  c #874B56",
"b  c #8B545C",
"n  c #845A5E",
"m  c #83625F",
"M  c #845D60",
"N  c #945760",
"B  c #AE5E63",
"V  c #8A6265",
"C  c #8D6863",
"Z  c #8D616D",
"A  c #916566",
"S  c #946269",
"D  c #966A6C",
"F  c #9B6C6F",
"G  c #806276",
"H  c #9C6C71",
"J  c #9E7C7C",
"K  c #A47175",
"L  c #AA7579",
"P  c #B57078",
"I  c #B47B7F",
"U  c #C36375",
"Y  c #D1697C",
"T  c #D86C7F",
"R  c #5F802E",
"E  c #5F8030",
"W  c #62812F",
"Q  c #65842F",
"!  c #68882F",
"~  c #638131",
"^  c #628332",
"/  c #648130",
"(  c #658431",
")  c #658534",
"_  c #688632",
"`  c #698734",
"'  c #638832",
"]  c #678832",
"[  c #678C32",
"{  c #6A8833",
"}  c #688B34",
"|  c #787C8F",
" . c #9C7188",
".. c #B17F81",
"X. c #B37E89",
"o. c #DB6D80",
"O. c #C17F87",
"+. c #C67C88",
"@. c #D57E8A",
"#. c #E47D8C",
"$. c #A78888",
"%. c #BD9A99",
"&. c #B3A5AD",
"*. c #D48D93",
"=. c #DC8E95",
"-. c #DE9096",
";. c #DD9198",
":. c #E18E96",
">. c #EB8995",
",. c #E1959B",
"<. c #E9929B",
"1. c #E49AA4",
"2. c #EC9CA2",
"3. c #F29DA4",
"4. c #D4A9B3",
"5. c #EEA5AA",
"6. c #F2A0A6",
"7. c #F6A2A8",
"8. c #F8A6AB",
"9. c #F4A9AD",
"0. c #EFBFBF",
"q. c #F5B7B9",
"w. c #F5BDBC",
"e. c #FBBDBE",
/* pixels */
"q ( Q Q ( W ( Q ~ e e e / ( ( q 9 W / ` ( ( / ) e 0 0 9 9 W / { ",
"/ ( ( ( ( / ` { _ _ _ ( W ( ( / W W ( ] ( W 9 9 ~ ~ ~ 0 9 e e ( ",
"/ / ( { ( / ( ~ q / / / _ { _ e 8 9 ( ( W 9 9 q 9 9 W W 9 q 9 0 ",
"~ ( ( ( _ ( ~ ] ( ( ( / ( ! { q 8 e ( / / ( { { ~ 9 9 9 9 / e ~ ",
"~ W q ( { W / { ~ 9 ( ~ 9 9 9 9 9 ( ( ( e / / / e q q 8 q ~ Q q ",
"/ ~ q ( e W W { W q ~ 9 9 9 W ~ Q ( ( q 8 0 ~ / 0 8 8 9 ~ W e q ",
"_ ( / ~ W 9 W ( W ~ } ( ~ 9 q ~ ( ( W W e 0 ~ W 9 9 W / Q 9 q q ",
"W 9 ~ ( ( 9 9 W ~ ( [ ( W 4 ; > > , > 4 8 e 9 9 9 9 ~ W Q / 9 8 ",
"~ ' ] W ~ W W q W R Q ~ 6 u l l $   . % 8 q 8 9 9 9 ~ W Q q q 9 ",
"W { ( W / / 9 9 e e 9 4 X z @.:.V O + % 9 W W q q 8 9 W q q 9 9 ",
"( ` { ( ( ( / ~ ~ q 4 3 h d f P V # k i 4 W W q 9 9 W W q q 9 0 ",
"q / } ] ~ ( W q q 4 u I 2.K @ M ..$.0.%.g 4 9 ~ ~ 9 7 9 q 9 8 8 ",
"( ( ) 0 q 9 9 / / = D 6.7.2.K L 9.q.e.w.J = 9 / ( 9 8 8 q 8 8 8 ",
"( { ( q W W 9 ~ q & H 7.7.7.3.3.7.8.8.8.K % 8 9 ~ 9 8 9 9 q 9 8 ",
"Q ( / W W ( 9 9 0 & F 7.7.7.7.7.;.O.O.*.H % 7 q q q 9 9 9 q ~ ~ ",
"q q 9 W 9 8 7 8 8 & F 7.7.7.7.7.X.p y Z H % 8 W 9 9 8 9 9 W R ~ ",
"~ 0 e q 8 8 9 ~ 8 & H 7.7.7.7.7.4.| t G H & 8 ~ 9 8 8 9 W 9 9 8 ",
"e q W 9 8 9 9 q 9 > m ,.7.7.7.7.w.&.x  .S = 9 9 q 9 9 8 9 8 9 9 ",
"q / / q 9 q q q W 8 2 C -.3.7.7.8.5.1.+.s * 8 9 9 9 9 9 9 9 9 9 ",
"W ~ ~ ~ q q 9 W Q Q 9 : N >.=.=.<.<.=.A : 6 8 8 8 9 9 q q 9 9 9 ",
"q ( W q q 9 9 R 9 q 9 % b #.b j U U v : 7 8 9 9 9 9 9 8 9 9 9 8 ",
"W Q 9 8 W q 0 9 9 9 8 & A 3.n d T o.v % 8 9 9 R W W 9 8 9 9 9 8 ",
"W q W 9 9 e ~ 9 9 q 9 ; m *.l d o.Y j - 9 ~ 9 9 W W 9 8 9 9 9 9 ",
"9 9 R 8 8 q q 9 q q q 7 1 < o a B c 1 9 9 q 9 q 9 9 9 9 8 8 9 R ",
"9 9 ~ 9 9 9 9 9 q 9 8 9 7 6 5 w r w 8 W 9 9 9 W q 9 q 9 9 8 8 9 ",
"/ ( W 9 W 8 8 8 8 8 9 q W q q q ~ ( R 9 0 ~ 9 9 8 9 q q q 9 9 9 ",
"/ ~ 9 9 9 ~ q 8 9 q 9 q 8 8 9 9 ~ 8 8 9 ~ ~ 9 q 9 9 q q q 8 q q ",
"( ~ 9 9 9 W 9 8 9 W q q 7 7 9 9 q 9 9 ~ 9 q 9 9 9 9 8 7 9 9 E 0 ",
"( ( ~ / q 8 9 9 8 q W ~ 9 8 9 q q q q q q 9 9 9 9 9 9 8 9 9 9 9 ",
"W q 9 9 9 ~ e 9 9 q 9 9 9 q 9 9 q q 9 9 9 q 9 8 8 9 8 q W 8 8 9 ",
"q 9 9 W 9 q 9 9 9 9 9 q q / q 9 9 9 W q 9 q 9 9 8 8 8 9 W q 9 q ",
"8 W W 9 9 q q 9 9 q q q 9 q q 7 8 q 9 8 8 9 9 9 9 9 9 9 9 8 8 8 "
};
