/* XPM */
static char *_eecd9a347fd407dfd08141e529d589do7chMZT389oHLLc9[] = {
/* columns rows colors chars-per-pixel */
"32 32 155 2 ",
"   c #5C6D2E",
".  c #57752B",
"X  c #5A762B",
"o  c #5D7B2D",
"O  c #5F7431",
"+  c #5E7D30",
"@  c #61762F",
"#  c #617D2E",
"$  c #646E35",
"%  c #656739",
"&  c #6B653C",
"*  c #6B6C3B",
"=  c #72653E",
"-  c #736F3B",
";  c #647434",
":  c #697536",
">  c #627D31",
",  c #6B7A35",
"<  c #6C733B",
"1  c #6C7C3A",
"2  c #737B35",
"3  c #7E7F34",
"4  c #76703C",
"5  c #7E753A",
"6  c #6F6F43",
"7  c #7E6B45",
"8  c #6C7140",
"9  c #727444",
"0  c #747C44",
"q  c #777549",
"w  c #79744B",
"e  c #7B794A",
"r  c #7F6B53",
"t  c #A44F5A",
"y  c #846C58",
"u  c #817755",
"i  c #827954",
"p  c #8A765D",
"a  c #B15C67",
"s  c #B35B68",
"d  c #B85C6B",
"f  c #997D6B",
"g  c #AB636C",
"h  c #B0606A",
"j  c #AE6F74",
"k  c #BC6572",
"l  c #B66A74",
"z  c #BB6A76",
"x  c #A47B76",
"c  c #B7737A",
"v  c #BC747C",
"b  c #B9787E",
"n  c #E65B7B",
"m  c #C46272",
"M  c #C36B7A",
"N  c #CB6B7D",
"B  c #C2727E",
"V  c #5F802E",
"C  c #5F8030",
"Z  c #63822F",
"A  c #68892F",
"S  c #648331",
"D  c #698633",
"F  c #668832",
"G  c #698932",
"H  c #9CB91E",
"J  c #A2BD1E",
"K  c #8B9F27",
"L  c #8C932D",
"P  c #929A2B",
"I  c #838531",
"U  c #848A31",
"Y  c #898A30",
"T  c #93A725",
"R  c #91AB23",
"E  c #9FAD25",
"W  c #A4B622",
"Q  c #938165",
"!  c #97826A",
"~  c #9B836E",
"^  c #9E8770",
"/  c #A28876",
"(  c #AA877C",
")  c #B67A81",
"_  c #BF7A82",
"`  c #DC6B84",
"'  c #C47782",
"]  c #C77A84",
"[  c #CE7B88",
"{  c #D37686",
"}  c #D67388",
"|  c #D57A8C",
" . c #D8798A",
".. c #E2768E",
"X. c #E77790",
"o. c #E57E96",
"O. c #AE8F83",
"+. c #B68183",
"@. c #B7878A",
"#. c #BE8088",
"$. c #B9878A",
"%. c #B28A89",
"&. c #BB8B8E",
"*. c #B7918A",
"=. c #BA8F91",
"-. c #BD9392",
";. c #BF9C9D",
":. c #BCA5A0",
">. c #C28087",
",. c #C6828C",
"<. c #C5898F",
"1. c #CC898F",
"2. c #D4818F",
"3. c #C58C92",
"4. c #CC8B93",
"5. c #CF8F9A",
"6. c #DD8292",
"7. c #D48994",
"8. c #D88995",
"9. c #C39696",
"0. c #C99096",
"q. c #C39698",
"w. c #C69A9A",
"e. c #E28395",
"r. c #E28696",
"t. c #E68399",
"y. c #E38D9E",
"u. c #E88A9E",
"i. c #D595A0",
"p. c #DA96A1",
"a. c #D49CA4",
"s. c #E68CA0",
"d. c #EE88A0",
"f. c #F18FA7",
"g. c #E493A2",
"h. c #E899A7",
"j. c #E69BAA",
"k. c #EC9CAC",
"l. c #F297AE",
"z. c #F29BB1",
"x. c #C4A1A4",
"c. c #D5A6AA",
"v. c #DBA4AC",
"b. c #D3AAAF",
"n. c #DEA9B1",
"m. c #DBADB5",
"M. c #E1A2AF",
"N. c #E5A7B4",
"B. c #E8A1B0",
"V. c #E2ABB5",
"C. c #E4ACB8",
"Z. c #F0A5B7",
"A. c #EAB3BD",
"S. c #F3AEC0",
"D. c #F1B2C0",
/* pixels */
"# S Z Z S Z S Z S > > > S S D # o Z S D S S S D > + + o o Z S G ",
"S S S S S S D G D D D S Z S S S Z Z S F S Z o o S S S + o > > S ",
"S S S G S S S S # S S S D G D > X o S S Z o o # o o Z # o # o + ",
"S S S S D S S F S S S S S A A o X o S S S S G G S o o o o S > S ",
"S Z # S G Z S G S o S S o X : q q w 1 S > S S S > # # X # S Z # ",
"S S # S > Z Z G Z # S o o u *.n.n.n.*.i o + S S + X X o S Z > # ",
"D S S S Z o Z S Z S D 0 p &.a.$.@.3.M.v.w o S Z o o Z S Z o # # ",
"Z o S S S o o Z Z D ~ 9.q.%.<.r.r.8.3.c.O.* > o o o S Z Z S o X ",
"S F F Z S Z Z # > ^ a.;.=.x $.c b B h.9.&.-.6 o o o S Z Z # # o ",
"Z G S Z S S o ; / a.x.N.3.6.2.+.[ 6.' 4.j k./ @ # X o Z # # o o ",
"S D G S S S e *.j.3.m.N 7.n b 8.t d 3.-.l f.-.; o o Z Z # # o + ",
"# S G F S S 9 c.d.c y.b ] s 3.v { 3.] 4.m l.:.; S o . o # o X X ",
"S S D + # o @ ~ u.c h.M 8.h a.M v m ..>.` C.#.7 S o X X # X X X ",
"S G S # Z Z o 9 1.B v.} 3.X.a ' e.r.,.| V.,.s.( , o X o o # o X ",
"Z S S Z Z S o X ~  .3.5.z 5.t.B c B | b.) o.V.Q > # o o o # S S ",
"# # o Z o X . X 8 4.M %.a.| &.a.M.i._ k g B.! > o o X o o Z V S ",
"S + > # X X o S # f g.k 0.Z...M z M o.p.3.w.< Z o X X o Z o X X ",
"> # Z o X o o # # < f 4.x V.S.l.f.z.D.q.v.! > o # o o X o X o o ",
"# S S # o # # # Z Z > < ; Q q.A.A.c./ Q ~ , o o o o o o o o o o ",
"Z S S S # # o Z Z Z Z S # # < r y q > o X o X X X o o # # o o o ",
"# S Z # # o o V o # > - 4 : o   % + o o o X o o o o o X o o o X ",
"Z Z o X Z # + o o ; I T K U 2 o * ; o o o X o V Z Z o X o o o X ",
"Z # Z o o > S o o * 5 E J J L : * ; ; < ; S o o Z Z o X o o o o ",
"o o V X X # # o # # > ; I Y : $ * : 3 U I , o # o o o o X X o V ",
"o o S o o o o o # o X o > ; o ; = L R H W 5 $ Z # o # o o X X o ",
"S S Z o Z X X X X X o # # # # * : L W P 2 ; O o X o # # # o o o ",
"S S o o o S # X o # o # X X X & > O $ ; C S o # o o # # # X # # ",
"S S o o o Z o X o Z # # . . X * > o o S o # o o o o X . o o C + ",
"S S S S # X o o X # Z S o X o # # # # # # o o o o o o X o o o o ",
"Z # o o o S > o o # o o o # o o # # o o o # o X X o X # Z X X o ",
"# o o Z o # o o o o o # # S # o o o Z # o # o o X X X o Z # o # ",
"X Z Z o o # # o o # # # o # # . X # o X X o o o o o o o o X X X "
};
