/* XPM */
static char *_b55cf69b6bc4ce3cd3fda5fa8d54171isjrMXpmdP2vGQTV[] = {
/* columns rows colors chars-per-pixel */
"32 32 136 2 ",
"   c #57732A",
".  c #5A762B",
"X  c #5D7B2D",
"o  c #5D7330",
"O  c #5E7D30",
"+  c #617E2E",
"@  c #656F35",
"#  c #6B663B",
"$  c #666D38",
"%  c #6C6B3B",
"&  c #647533",
"*  c #6A7037",
"=  c #627D31",
"-  c #6A7B33",
";  c #677438",
":  c #6B743B",
">  c #6E7B3E",
",  c #707537",
"<  c #707835",
"1  c #787E34",
"2  c #707D3F",
"3  c #747446",
"4  c #747D45",
"5  c #77774A",
"6  c #7B7C4A",
"7  c #7F7851",
"8  c #817654",
"9  c #827B54",
"0  c #8C7D5E",
"q  c #B65E6B",
"w  c #907F64",
"e  c #987E67",
"r  c #9D7D6D",
"t  c #A17369",
"y  c #BB6471",
"u  c #B36C75",
"i  c #BF747F",
"p  c #D85F78",
"a  c #C56C7A",
"s  c #CA6C7D",
"d  c #C7717E",
"f  c #5F802E",
"g  c #5F8030",
"h  c #63822F",
"j  c #68882F",
"k  c #638231",
"l  c #638531",
"z  c #658431",
"x  c #658534",
"c  c #688632",
"v  c #698734",
"b  c #638832",
"n  c #678832",
"m  c #678C32",
"M  c #6A8833",
"N  c #688B34",
"B  c #7C8233",
"V  c #A0BA1F",
"C  c #878D2F",
"Z  c #8B942D",
"A  c #8B982B",
"S  c #919B29",
"D  c #818831",
"F  c #9EB421",
"G  c #908261",
"H  c #99826A",
"J  c #A08571",
"K  c #AA8376",
"L  c #AB8D7E",
"P  c #AC8D7E",
"I  c #D66D81",
"U  c #DA6C84",
"Y  c #C67583",
"T  c #CA7582",
"R  c #CA7583",
"E  c #C37D85",
"W  c #CA7986",
"Q  c #C77D88",
"!  c #CA7E89",
"~  c #D57186",
"^  c #D5778A",
"/  c #D8778C",
"(  c #D37C8B",
")  c #AA8280",
"_  c #AC8880",
"`  c #AE8F82",
"'  c #AF8B85",
"]  c #BE8186",
"[  c #B78688",
"{  c #BF8489",
"}  c #B88D8E",
"|  c #BC8C8F",
" . c #B39187",
".. c #BB958E",
"X. c #C5858C",
"o. c #CA828C",
"O. c #D2818F",
"+. c #C78B92",
"@. c #C98B92",
"#. c #C88D94",
"$. c #CB8D95",
"%. c #D58191",
"&. c #DC8394",
"*. c #D08B96",
"=. c #D58E9A",
"-. c #DD8E9E",
";. c #C29795",
":. c #CD919A",
">. c #CC939C",
",. c #C79D9D",
"<. c #CC9A9B",
"1. c #C89B9F",
"2. c #CA9C9D",
"3. c #D2949C",
"4. c #DA939F",
"5. c #E18297",
"6. c #CA9DA2",
"7. c #CD9CA0",
"8. c #D09AA2",
"9. c #DB99A2",
"0. c #D79FA9",
"q. c #E891A6",
"w. c #E299A9",
"e. c #ED9CAF",
"r. c #F39EB3",
"t. c #D2A1A4",
"y. c #D4A3A7",
"u. c #D6A1A9",
"i. c #D8A6AB",
"p. c #DAA3AC",
"a. c #D8A8B0",
"s. c #DDAFB8",
"d. c #E2A5B0",
"f. c #E2A9B3",
"g. c #F2A1B5",
"h. c #F1AABC",
/* pixels */
"+ z h h z h z h k = = = k z c + X h k v z z k x = O O X X h k M ",
"k z z z z k v M c c c z h z z k h h z n z h X X k k k O X = = z ",
"k k z M z k z l + k k k c M c = . X z z h X X + X X h + X + X O ",
"k z z z c z k n k z z k c j M + . = z z k z M M k X X X X k = k ",
"k h + z M h k M k X z l X X X X X z z z = k k k = + + . + k h + ",
"k k + z = h h M h + k X X X h k h z z + . O k k O . . X k h = + ",
"c z k k h X h z h k N z k X + k z z h h = O k h X X h k h X + + ",
"h X k z z X X h l z m z h + h z h n z + X = X X X X k h h k X . ",
"k b n h k h h + + X h k h = 3 9 7 2 X X X + . X X X k h h + + X ",
"h M z h k k X X = = X X & J 7.u.p.2.G X + + h + + . X h + + X X ",
"z v M z z z k k k h & 0 _ | #.@.+.>.y.3 X h h + X X h h + + X O ",
"+ k N n k z h + + & P 1.} ) E d T 9.,.' 8 X X k l X   X + X . . ",
"z z x O + X X h > ` 6.a.#.O.X.] ( ! { o.;.; + k z X X . + X . . ",
"z M k + h h X 6 ;.-.6.%.o.p X.y q X.| s d.3 X X k X . X X + X . ",
"h z k h h z X : t.~ *.Y Y u o.T X.T o.U s.3 X + + + X X X + k k ",
"+ + X h X .   . H ^ 3./ *.s E a I &.T w.#.t = h X X . X X h f k ",
"k O = + . . X k : o.Q 4.i &.s ! ! W 0.o.q...- h X . . X h X . . ",
"= + h X . X X + + e ^ [ #.O.:.=.=.! u Y <.4 k X + X X . X . X X ",
"+ k k + X + + + h > @.T #.e./ Y T 5.*.8.w X X X X X X X X X X X ",
"h k k k + + X h h h 6 K r i.h.r.g.f.;...; X . . . X X + + X X X ",
"+ z h + + X X f X + + o = 5 L ;. .9 5 > X . X X X X X . X X X X ",
"h h X . h + O X X X O & * & & # - h X X X . X f h h X . X X X . ",
"h + h X X = k X X = < A Z B = & & X X k h k X X h + X . X X X X ",
"X X f . . + + X + & % S F F 1 $ ; & * - X + X + X X X X . . X f ",
"X X k X X X X X + X . . 1 B & % , D A C & X X h + X + X X . . X ",
"k z h X h . . . . . X + + + = % Z V F C % = X X . X + + + X X X ",
"k k X X X k + . X + X + . . @ $ - B - X k k X + X X + + + . + + ",
"z l X X X h X . X h + +     @ $ + X X k X + X X X X .   X X g O ",
"z z l k + . X X . + h k X . & & + + + + + X X X X X X . X X X X ",
"h + X X X k = X X + X X X + X O + + X X X + X . . X . + h . . X ",
"+ X X h X + X X X X X + + k + X X X h + X + X X . . . X h + X + ",
". h h X X + + X X + + + X + +   . + X . . X X X X X X X X . . . "
};
