/* XPM */
static char *f97ff9e75ad74d74b36d6364741dc1c4w7tBdBU4uU8fhbES[] = {
/* columns rows colors chars-per-pixel */
"32 32 240 2 ",
"   c #6F3ED3",
".  c #733ED2",
"X  c #7D3DD4",
"o  c #5E58D7",
"O  c #6B48D6",
"+  c #6B4DD5",
"@  c #6A4BDC",
"#  c #7444D5",
"$  c #7C44D5",
"%  c #7B4AD4",
"&  c #7146D8",
"*  c #7D44DB",
"=  c #734BDC",
"-  c #7C4CDB",
";  c #6B52DB",
":  c #6758DB",
">  c #7457D7",
",  c #7455DA",
"<  c #7B5ADB",
"1  c #4869D8",
"2  c #5869DC",
"3  c #4978DC",
"4  c #5B77DB",
"5  c #6A68DD",
"6  c #7968DA",
"7  c #6879D9",
"8  c #7473DD",
"9  c #7977DC",
"0  c #734EE2",
"q  c #6D5EE4",
"w  c #665FE9",
"e  c #7C53E4",
"r  c #755BE7",
"t  c #7B5EE4",
"y  c #5A68E6",
"u  c #4B79E0",
"i  c #5B7AE5",
"p  c #6868E8",
"a  c #7765E4",
"s  c #746DE3",
"d  c #7B6CE4",
"f  c #7A63EA",
"g  c #6C75E3",
"h  c #6878E7",
"j  c #7474E2",
"k  c #7874E6",
"l  c #7D72EF",
"z  c #737CEC",
"x  c #7C7CEC",
"c  c #776DF4",
"v  c #7C6EF2",
"b  c #6F70F5",
"n  c #6B7AF1",
"m  c #7475F2",
"M  c #7977F5",
"N  c #747CF4",
"B  c #7A7CF1",
"V  c #7E7DFA",
"C  c #823BD3",
"Z  c #8A3ED4",
"A  c #8256CF",
"S  c #9555CE",
"D  c #8545D4",
"F  c #8C43D5",
"G  c #8748D8",
"H  c #9349D5",
"J  c #9748D8",
"K  c #8557D8",
"L  c #9755D9",
"P  c #A34BCD",
"I  c #A54CD2",
"U  c #A65BD5",
"Y  c #927FCF",
"T  c #8C64DB",
"R  c #8868DA",
"E  c #9969D9",
"W  c #8876DC",
"Q  c #9479D7",
"!  c #AA6ACF",
"~  c #A467D7",
"^  c #B66AD4",
"/  c #AA7BD9",
"(  c #BB72D3",
")  c #B17ED3",
"_  c #B779D7",
"`  c #8D52E3",
"'  c #8659E3",
"]  c #8866EA",
"[  c #9969E5",
"{  c #8878E5",
"}  c #8676EA",
"|  c #847DEC",
" . c #997BE4",
".. c #896DF3",
"X. c #8373F4",
"o. c #8C76F3",
"O. c #817BF1",
"+. c #9474F1",
"@. c #A368E1",
"#. c #AF7FE1",
"$. c #C17AD1",
"%. c #3D82D5",
"&. c #4887DA",
"*. c #458CDB",
"=. c #5883DC",
"-. c #5C8DDD",
";. c #4797DA",
":. c #4D94DC",
">. c #549CDD",
",. c #599BDC",
"<. c #688BD8",
"1. c #7783DD",
"2. c #679BDD",
"3. c #7798D9",
"4. c #7299DF",
"5. c #5EADD4",
"6. c #5BA6DC",
"7. c #55A9DA",
"8. c #55A9DC",
"9. c #7EBDCE",
"0. c #64ABDB",
"q. c #6CADDB",
"w. c #72AADA",
"e. c #67B7D6",
"r. c #64B4DB",
"t. c #6BB3DC",
"y. c #6CBADB",
"u. c #76B5D2",
"i. c #7BBCD4",
"p. c #74B5DC",
"a. c #7BB4DE",
"s. c #74BCDB",
"d. c #7CBCDB",
"f. c #4985E2",
"g. c #5C83E3",
"h. c #5C84EC",
"j. c #568AE8",
"k. c #4A91E1",
"l. c #5996E6",
"z. c #5399E2",
"x. c #628BE3",
"c. c #6B89E8",
"v. c #7384E2",
"b. c #7B83E3",
"n. c #748AE4",
"m. c #7E8BE6",
"M. c #7484EC",
"N. c #7B86EC",
"B. c #758BEC",
"V. c #7C8CEC",
"C. c #6996E6",
"Z. c #6C9DE3",
"A. c #6494EB",
"S. c #679AEA",
"D. c #6A99ED",
"F. c #7C93E3",
"G. c #7699E6",
"H. c #7494EC",
"J. c #7B94EC",
"K. c #7A9AEB",
"L. c #6A86F3",
"P. c #7D82F5",
"I. c #7987F7",
"U. c #748CF4",
"Y. c #6493F0",
"T. c #7C95F3",
"R. c #7598F2",
"E. c #58A2E2",
"W. c #67A6E7",
"Q. c #6AA5E2",
"!. c #64ABE1",
"~. c #6BABE4",
"^. c #74A4E2",
"/. c #7CA3E4",
"(. c #74ADE1",
"). c #7BABE7",
"_. c #74A3EC",
"`. c #7BA2E9",
"'. c #6CB0E2",
"]. c #74B2E1",
"[. c #7BB4E1",
"{. c #74C1D5",
"}. c #7DC2D6",
"|. c #8A84DB",
" X c #868ADB",
".X c #8E99D1",
"XX c #829CDC",
"oX c #9999DB",
"OX c #A784D8",
"+X c #B687D8",
"@X c #A695DB",
"#X c #AC9BDB",
"$X c #B698D8",
"%X c #8CA4DC",
"&X c #88A9D9",
"*X c #8CABDE",
"=X c #94A5D8",
"-X c #9DA5DB",
";X c #94ABDC",
":X c #9BACD9",
">X c #85B6D7",
",X c #84BED4",
"<X c #8CBCD6",
"1X c #82B4DB",
"2X c #8DB3DC",
"3X c #96B7D6",
"4X c #A6A8D4",
"5X c #AAA9D7",
"6X c #8382E2",
"7X c #8B84E4",
"8X c #878CE7",
"9X c #8C89E3",
"0X c #8384EC",
"qX c #8B84ED",
"wX c #828DEE",
"eX c #9A83E3",
"rX c #948CE2",
"tX c #968AEB",
"yX c #8593E4",
"uX c #8B97E5",
"iX c #839AE5",
"pX c #8394EB",
"aX c #849BEC",
"sX c #8999EB",
"dX c #9599E6",
"fX c #8483F3",
"gX c #8A84F3",
"hX c #838CF3",
"jX c #8688F8",
"kX c #938DF1",
"lX c #8593F1",
"zX c #8698F2",
"xX c #A685E8",
"cX c #A494E6",
"vX c #A49BE2",
"bX c #88A5E5",
"nX c #92A7E4",
"mX c #C285D5",
"MX c #82C1D6",
"NX c #8DC3D6",
/* pixels */
"fXhXJ.F.6X6 &   . # $ P R p e = = # $ $ D F L +.P.B l e K N.V.0X",
"` ..p ; = ; : q f c X./ Q 2 q a m n p 6 [ @._  .p 0 @ ; H G * G ",
"I @.g.=.B.H.Z.^._.R.gX+X|.3 n V U.Y.h.c.xXxXmXqXu y b b c t , S ",
"OX_ n.>.[.d.s.t.~.W.bX$X9X*.x.B v n h.c.xXxXmX| f.j.L.M.c.U.C.uX",
":X#XB.0.nX%Xw.e.e.y.<X#XqXl.e.0.n.V.Z.w.nX#X+X| k.l.S.3.4._.).nX",
";XkXP.D.aXgXfXR.~.[.1XnXhXR._.'.s.}.MX{.}.<XdXjXD.t.s.d.d.}.}.3X",
"t - G ' } 0XgXjXI.N l ] f f ] } 0XwXV.V.V.z l X.O.P.k { 7Xn.b.9 ",
"< < K K G D H [ N y @ & + A S % H [ c w @ # # Z J = O F ~ h o + ",
"`.bXXX4.G.b.~ ( B u 2 p M.uXQ 7 Q / p 2 2 s g W E < v.|._ z &.C.",
"T.R.x x V.A.eX$.x f.*.S.T.hXl z rX/ i f.j.Y.D.sXlXO.qX8X_ 0X*.S.",
"V B n v ..n uXmX| f.k.l.U.I.L.gXdXOXh.k.k.L.R.zXI.N eX1.( 7X*.h.",
"B.m.G.`.iX/.-X$XqXl.8.e.t.[.].2X5XrXA.W.r.t.a.[.Q.G.oX<.+XeXz.7.",
"{.,Xi.i.,X9.3XvXfXU._.'.s.d.i.<XdXfXI.R._.~.a.[.s.{.>Xu.-XqXL.0.",
"n.8 6 W 9XB.8 K ` ] X.B x O.P.P.V V X.c a , < T 6XyXm.8 a - ` } ",
"6 7 j T ~ h 1 , H Z C C X F L ] q = & # + 6 R U F L p o O , L P ",
"U  Xq.1X@Xg.*.x.B k d ' T E (  .1 5 j |.%X>Xw.d ~ ) =.&.-.pXpX .",
" .U T |.eXg.*.>.bX(.~./.nX#XmX6X%.x.bX-XoX8 4 k ) OX-.:.z._.T.zX",
"J.] L L U z k.6.>X>X0.q.bXdX+X7X;.q.;X*Xm.h g.v./ ( C.;.>.~.).bX",
"~.^.oXoX$XwXE.t.*XG.,.t.).bX#XtX6.u.<X2Xp.5.5.u.3X#XB.z.r.y.d.1X",
"y.d.<X2XdXO.U.K.J.J./.a.a.&X9XO.z b.6X} | Z.p.1XiXqXP.D.'.s.d.s.",
"F.K.N.a 0 - - - % G @.O.p @ $ $ X X X C J [ O.p - ` ' t } x x k ",
"[ N y o > E  X<.8 ! ( s 1 2 9 |.1.8 8 R ^ ^ r 2 6 A $ D S = & D ",
"/ h 1 i pXOXK 8 2.@X_ b.;.6.2XbX%Xw.q.p.@X_ 4 i N x.n.rXY 4 <. X",
"/ h *.A.dX.X3.{  XoX+X8XE.e.^.B.{ 6 1.iXXX+Xx.:.z L.H.oX3.Z.(.;X",
"#.M.;.!.:X4Xr.e.*X;X#XkXR.~.8.!.Q.F.yX0X0X+XH.7.r.(.w.oX2.q.^.=X",
"cXwX6.y.:XtXH.r.d.2XdXjXP.I.Y.~.y.s.d.].*XvXT._.].y.i.dXaX~.(.).",
"o...x B.0Xo.X.n s a ' ] r e f d x J.J.n.9X{ c v X.M N.lXP.m B P.",
"$ D F * * F L 2 : + G S + % + T ! } y @ D D $ D D G G ] w & * * ",
"7Xb.R K 6 E ) -.:.,.XXQ 1.v.4.-X$XqX1 g |.9 g 8 6 K ~ E 3 2 t d ",
"wXV.K.pXwXxX+X-.8.!.a.2X<.6X&X=X$XN.&.B.{ b.hXD.H.pX@XOX&.:.M.tX",
"N.sXH.V.sX#X+XB.!.s.,X1X5.=XyX&XcXM.*.Z.yX%Xa.t.Q.aX$XcX>.7.q.uX",
",XMX{.MXNX3XrXm z x b.m.^.^.sXaXgXm l.p.>X*X/.p.y.{.:XcXZ.r.s.s."
};
